<svg xmlns="http://www.w3.org/2000/svg" viewBox="0 0 585.01 765.25"><defs><style>.cls-1{fill:#181818;}.cls-2{fill:#020202;}.cls-3{fill:#292929;}.cls-4{fill:#161616;}.cls-5{fill:#2b2b2b;}.cls-6{fill:#121212;}.cls-7{fill:#040404;}.cls-8{fill:#666;}.cls-9{fill:#5b5b5b;}.cls-10{fill:#212121;}.cls-11{fill:#373737;}.cls-12{fill:#050505;}.cls-13{fill:#333;}.cls-14{fill:#252525;}.cls-15{fill:#3f3f3f;}.cls-16{fill:#080808;}.cls-17{fill:#323232;}.cls-18{fill:#151515;}.cls-19{fill:#202020;}.cls-20{fill:#0f0f0f;}.cls-21{fill:#3d3d3d;}.cls-22{fill:#4f4f4f;}.cls-23{fill:#474747;}.cls-24{fill:#505050;}.cls-25{fill:#424242;}.cls-26{fill:#2f2f2f;}.cls-27{fill:#131313;}.cls-28{fill:#1a1a1a;}.cls-29{fill:#1b1b1b;}.cls-30{fill:#5d5d5d;}.cls-31{fill:#595959;}.cls-32{fill:#0b0b0b;}.cls-33{fill:#535353;}.cls-34{fill:#d0d0d0;}.cls-35{fill:#5e5e5e;}.cls-36{fill:#858585;}.cls-37{fill:#4d4d4d;}.cls-38{fill:#393939;}.cls-39{fill:#1f1f1f;}.cls-40{fill:#4e4e4e;}.cls-41{fill:#171717;}.cls-42{fill:#676767;}.cls-43{fill:#434343;}.cls-44{fill:#090909;}.cls-45{fill:#4a4a4a;}.cls-46{fill:#a6a6a6;}.cls-47{fill:#545454;}.cls-48{fill:#363636;}.cls-49{fill:#717171;}.cls-50{fill:#2c2c2c;}.cls-51{fill:#4c4c4c;}.cls-52{fill:#7a7a7a;}.cls-53{fill:#686868;}.cls-54{fill:#1d1d1d;}.cls-55{fill:#0e0e0e;}.cls-56{fill:#454545;}.cls-57{fill:#797979;}.cls-58{fill:#828282;}.cls-59{fill:#343434;}.cls-60{fill:#6f6f6f;}.cls-61{fill:#575757;}.cls-62{fill:#979797;}.cls-63{fill:#8e8e8e;}.cls-64{fill:#929292;}.cls-65{fill:#696969;}.cls-66{fill:#525252;}.cls-67{fill:#7d7d7d;}.cls-68{fill:#353535;}.cls-69{fill:#b9b9b9;}.cls-70{fill:#656565;}.cls-71{fill:#777;}.cls-72{fill:#6e6e6e;}.cls-73{fill:#5f5f5f;}.cls-74{fill:#969696;}.cls-75{fill:#141414;}.cls-76{fill:#0a0a0a;}.cls-77{fill:#adadad;}.cls-78{fill:#444;}.cls-79{fill:#a7a7a7;}.cls-80{fill:#dbdbdb;}.cls-81{fill:#cbcbcb;}.cls-82{fill:#262626;}.cls-83{fill:#a5a5a5;}.cls-84{fill:#606060;}.cls-85{fill:#acacac;}.cls-86{fill:#a3a3a3;}.cls-87{fill:#747474;}.cls-88{fill:#a4a4a4;}.cls-89{fill:#565656;}.cls-90{fill:#c1c1c1;}.cls-91{fill:#b8b8b8;}.cls-92{fill:#313131;}.cls-93{fill:#515151;}.cls-94{fill:#dcdcdc;}.cls-95{fill:#646464;}.cls-96{fill:#7b7b7b;}.cls-97{fill:#c2c2c2;}.cls-98{fill:#787878;}.cls-99{fill:#d6d6d6;}.cls-100{fill:#8f8f8f;}.cls-101{fill:#9f9f9f;}.cls-102{fill:#818181;}.cls-103{fill:#afafaf;}.cls-104{fill:#494949;}.cls-105{fill:#939393;}.cls-106{fill:#727272;}.cls-107{fill:#303030;}.cls-108{fill:#838383;}.cls-109{fill:#bfbfbf;}.cls-110{fill:#fdfdfd;}.cls-111{fill:#1e1e1e;}.cls-112{fill:#cfcfcf;}.cls-113{fill:#2d2d2d;}.cls-114{fill:#989898;}.cls-115{fill:#242424;}.cls-116{fill:#070707;}.cls-117{fill:#aeaeae;}.cls-118{fill:#3a3a3a;}.cls-119{fill:#282828;}.cls-120{fill:#f5f5f5;}.cls-121{fill:#919191;}.cls-122{fill:#7c7c7c;}.cls-123{fill:#3c3c3c;}.cls-124{fill:#9d9d9d;}.cls-125{fill:#ececec;}.cls-126{fill:#636363;}.cls-127{fill:#a1a1a1;}.cls-128{fill:#707070;}.cls-129{fill:#9e9e9e;}.cls-130{fill:#8d8d8d;}.cls-131{fill:#dedede;}.cls-132{fill:#0d0d0d;}.cls-133{fill:#bebebe;}.cls-134{fill:#767676;}.cls-135{fill:gray;}.cls-136{fill:#aaa;}.cls-137{fill:#d4d4d4;}.cls-138{fill:#848484;}.cls-139{fill:#c8c8c8;}.cls-140{fill:#555;}.cls-141{fill:#7e7e7e;}</style></defs><g id="Layer_2" data-name="Layer 2"><g id="Layer_1-2" data-name="Layer 1"><path class="cls-1" d="M223.25,418.37l-9.69-1.58c-.09.35-.19.7-.28,1l36.93,13.46-3.79.85-21.76-2.83-6.31-1.12-14.82-4.95-.67,1.1,5.59,6.75,18,19.13L202.25,437.3l-2.94-2L190.47,430l-5.12-3.67c-1.7-8.33-.79-10.47,5.21-12.27l3.42-1.82c-1-1.91-1.64-4.45-3.24-5.61-4.24-3.09-8.91-5.6-13.41-8.33-.52-8.86,5.95-4.61,8.78-4.71,0-4.12-1.3-8.63.4-10.95,1.42-1.95,6.33-1.37,10.52-2-1.18-.87-2.76-1.91-4.2-3.13s-2.93-2.8-4.39-4.21l4.95,1,16.22,4,.41-1.79-12.76-3.25c-.33-.29-.67-.57-1-.85-.65-2-2.08-4.08-1.8-5.91.62-4-1.35-4-4.24-4a77.51,77.51,0,0,1-10.89-.53c-.91-.12-2.38-2-2.23-2.84.19-1.06,2.41-2.81,2.63-2.65,3.18,2.21,3.87-1.41,5.68-2.25l7.84-1.06-.54-2.65c-3.79.78-7.54,1.82-11.36,2.28-9,1.07-17.82.43-26.3-3.09-4.52-1.88-9.08-3.67-13.62-5.5l15,1.06c1.66.12,3.31.36,5,.34,3.81,0,8.2,1,11.31-.57,4.23-2.1,7.14-5.75,12.81-2.65,2,1.08,5.92-1.44,9-2.31a19.7,19.7,0,0,0,15.5,6.65c1,0,2-2,3.63-3.73l9.82,7.2c.77,1.92,1.88,3.79,2.23,5.8.49,2.8-.7,6.83.81,8.3,2.52,2.47,6.61,3.32,10,4.86l1.91,0c2.71,2.83,1,3.41-1.71,3.13-3.43-.37-6.84-1-10.26-1.56l-.51,1.36c2.91,2.11,4.85,5.78,9.54,5.08l10.9,2.1c2.34,1.15,4.56,2.77,7,3.35,3.86.9,8,.64,11.81,1.71,4.52,1.27,10.22-.32,13.28,4.93h0c-6.39-1-12.77-2.05-19.17-3-6-.9-12-1.69-18.08-2.53l-.19,1.33,7.81,3.32c-.09.36-.19.71-.29,1.07l-5.86.42c1.39,1.09,1.94,1.82,2.63,2,7.67,2.12,15.38,4.11,23,6.24,4.72,1.3,9.39,2.77,14.08,4.17-2.09,7.05-2.42,7.22-11,5.82-3.45-1.42-6.85-3-10.38-4.23-4.17-1.41-8.46-2.47-12.69-3.69l-5-2.23,3.93,9.22c1.61,1.32,3,3.35,4.88,3.81,4.25,1.08,8.68,1.4,13.05,2l11.23,2.15c4.49,3.76,8.25,8,9.91,14.87-6.68-1-12.85-1.64-18.93-2.81-11.37-2.2-22.68-4.68-34-7.05l-11.55-9.76-1.3,1.26a35.5,35.5,0,0,1,2.69,4.12C223.6,416.47,223.27,417.49,223.25,418.37Zm5.24-22,5.61-2.24-13-5.37c.6,3.49,1,5.5,1.3,7.52a14,14,0,0,0-.31,3.39c.28,1.91.33,4.92,1.43,5.43,2.54,1.18,5.64,1.17,8.52,1.44.13,0,.94-2.14.59-2.89C231.44,401.1,229.89,398.75,228.49,396.34Z"/><path class="cls-2" d="M377.4,400.14a8.51,8.51,0,0,1,1.15-1.59c9.51-8.34,15.22-19.12,19.83-30.62a10.53,10.53,0,0,1,2.94-4.32c-.23,3.29-.47,6.59-.69,9.88s-.06,6.7-.69,9.93-2.05,6.56-3.3,10.37c18.74-14.48,31.17-33.76,46.27-50.7-11.19,25.64-25,49.61-44.61,69.58,8.22-.58,39.57-25,57.26-44.9-.87,6.27-14.81,30.81-24.57,42.88l4.33-1.63,28.14-15.78c18-11.13,36.58-21.3,53.66-33.63,19.76-14.26,42.31-23,63.18-35a47.72,47.72,0,0,1,4.71-1.9,293.48,293.48,0,0,1-44.4,37.49c-22.26,15.6-46.24,28.14-70.43,40.43C443.24,414.36,414.54,423,386,432.12c-13.13,4.17-26.33,8.11-39.5,12.16-1.58-.1-3.3-.64-4.73-.22-7.46,2.23-14.86,4.69-22.28,7.08l-8.34,2-.25-.9L329.29,445c1.57-.47,3.17-.85,4.7-1.42,10.15-3.78,20.29-7.61,30.43-11.42l22-10.85c-4.84-1.68-9.6.42-12.54-3.69-.26-.37-1.66-.26-2.33.05-3.52,1.62-4-.41-4-3.16l5.81-4.42C380.33,406.94,380.33,406.94,377.4,400.14Z"/><path class="cls-3" d="M252.24,235.14l0,9.06-1.86,3.13-7.5-3.21-.7,1.27,1.67,3.75L220,258.58l-.86-1.26c-.26,1.23-.52,2.47-.79,3.71l-.09.06c-4.73-.08-9.46-.19-14.19-.2-.6,0-1.19.58-1.81.7-2.12.38-4.4,1.31-6.35.87-3.63-.82-7-2.59-10.62-3.69a4.39,4.39,0,0,0-3.5.54c-4.24,3.46-8.29,7.15-12.41,10.75l-6.9,5.18-.06-8.08,8-13c3.32-2.78,6.78-5.4,9.89-8.38a89.6,89.6,0,0,0,6.36-7.48l7.25-10.91L182.39,234l-.37-.85,8.84-6.83-1.23-1.48q-4.65,2.73-9.31,5.45l-.83-1.51c3.42-3.11,2.88-10.81,9.88-8.64l6.16-13L187.65,209l-4.27-1.69,2.34-3.37-4-8.59c-2.66,3.38-4.29,6.29-6.67,8.29-2.87,2.4-4.43,4.84-3.44,8.56l-11,7-.87-.85c2.35-3,4.76-6,7-9.06,5.25-7,10.44-14.1,15.66-21.15,4.2-4.42,8.41-8.84,13.05-13.7.39,2.36.61,3.74.92,5.56,4.64-1.16,8.22-2.8,9-7.82,1.29-.63,2.86-1,3.8-1.94,3.49-3.6,5.92-3.42,9.05.66a61.56,61.56,0,0,0,5.11,5.24L206.8,200.7l-3.07,4.19c2.12-.59,3.23-1.78,4.57-2.6q10.57-6.43,21.26-12.69c5.93-3.48,11.91-6.87,17.86-10.29l7-1.89c.39.34.79.67,1.19,1l-7.14,11.79c-5.26,1.59-10.74,2.76-14.09,7.81l-7.86,3.38,5.84,1.85c5.7,2.69,10.34,0,15.12-2.74,1.3-.75,3.27-.36,4.94-.49l-28,22.14c-.32-2.1-1.3-4.36-.82-6.25,1-4,2.78-7.8,4.39-12-4.09,1.28-7.14,1.89-9.84,3.22-1.33.65-2,2.62-3,4-3.12,3.2-7,5.71-10.9,8.21-.11.07-.31,0-.47,0l-1.65-3.36c-4.21,3.19-4.22,12.42-.15,16.58-2.42,3-1.89,5.67,1.45,7.73.88,2.61.17,4.38-2.39,5.72-1.27.67-3.12,2.88-2.88,3.3,1,1.58,2.55,3.69,4.07,3.83,4.21.4,8.74.71,12.73-.41a118.26,118.26,0,0,0,18.82-7.37C240.11,242.28,246.11,238.55,252.24,235.14Z"/><path class="cls-4" d="M304.43,587.15l-15.92,3.05-20.13,2.94c-3-.72-5.95-2-8.95-2.06-9.49-.23-14.55-6.92-20.66-12.53,6.87-5.87,20-9.31,24.47-6.08l-8.11,4.6.68,1.61c5.21.32,10.43,2,15.39-2.11a12.41,12.41,0,0,1,6.86-2.6c4.74-.21,9.13-4.21,14.2-1.31.54.31,1.89-.78,4.4-1.92-8.68-3-15.8-6.06-23.22-7.81-3-.7-6.67,1.4-10,2.23l-16.92-5.24c-.53-3.5,1.71-4.64,4.44-4.4,4.92.44,9.79,1.37,14.81,2.12.25-1.89.46-3.38.7-5.2,2.8,2.87,5.31,4.75,9.07,2.9.73-.36,2,.26,3,.55,1.54.44,3.19,1.65,4.55,1.36,5.12-1.09,10.55-.55,15.28-4,2.19-1.6,3.59-2.57,3-5.28l5-1.68.15,4.87-14.36,11.21c2,.12,3.63.25,5.22.31l15.08.51-7.2.53-.12,2.1,27.3,7.3-5.58,1.63c.05.43.11.86.16,1.29,2.43-.37,4.85-.83,7.29-1.07a11.74,11.74,0,0,1,4.51.2c2.48.8,4.78,2.17,7.24,3s4.15,2,2.87,5.08a15.22,15.22,0,0,0-.53,3.93c-4.22.88-1.44,3.07-.9,4.85-10.39-1.92-20.82-3.67-31.15-5.83C312.13,585.35,308.2,584.37,304.43,587.15Z"/><path class="cls-5" d="M25.22,547.88c4.36-7.75,5.94-17.2,13.93-22.74,1.46-1,2.82-2.17,4.23-3.25.14,2.57.29,5.13.48,8.52l5.57-5.22c.83.15,2.23.65,2.39.4,1.63-2.74,3.08-5.6,4.57-8.43l7.12-12.84L74.16,496c4.92-.88,9.85-1.73,14.77-2.63,6.81-1.26,8.08-2.81,8.44-10.17L92.29,483q3.55-6.4,7.13-12.8l1,.57c2,3.26,4.82,6.32,1.31,10.43a5.1,5.1,0,0,0-.89,4.23c2.5,6.74-1.23,12.1-3.43,17.84a5.05,5.05,0,0,0,.09,1.92c-1.74,3.83-3.83,7.55-5,11.54-.38,1.25,1.26,4.08,2.63,4.67,3.25,1.4,6.89,1.9,10.37,2.76v2L101,528.92l-1-.9-.56,4.17c-1.43-.67-2.82-1.42-4.28-2s-3.26-1.05-3.79-1.21c-.68,3.75-1.17,6.49-1.68,9.33l-5.92.7,3.91,4.27c-.41,1-.82,1.91-1.22,2.86l-4,5.76,5.87,8.36A64.83,64.83,0,0,0,82,555.67c-5.14-2.94-8.52-9.54-15.43-7.74-.33-3.31-.33-6.57-1.06-9.64-.51-2.12-2-4-3.11-6l5.55-9.5,1.72.21c.69,2.2,1.09,4.56,2.16,6.55A10.24,10.24,0,0,0,75.92,534c.91.42,2.89-1.23,4.29-2.1,1.24-.78,2.27-1.91,3.54-2.63,4.26-2.39,4.54-6.75.66-9.78a49.89,49.89,0,0,1-4.28-4.24l-4.86,2.86c-.72-5.37-4-3.48-7.12-2.86-6,1.22-8.82,6.31-12.57,10.26-3.95,4.14-4,9.87-.15,14.64l-5.12,2.43v-3.45l-9,11-3.59-.52c-.37-3.21,4.28-6.2-.16-8.95-4.72,3.28-5.69,10.42-12.79,11.64C25,550.44,25.1,549.16,25.22,547.88ZM92,496c-4.27-.56-6,1.48-7.68,9.11C92.08,506.86,92.2,506.72,92,496Z"/><path class="cls-6" d="M252.24,235.14c-6.13,3.41-12.13,7.14-18.45,10.15A118.26,118.26,0,0,1,215,252.66c-4,1.12-8.52.81-12.73.41-1.52-.14-3.12-2.25-4.07-3.83-.24-.42,1.61-2.63,2.88-3.3,2.56-1.34,3.27-3.11,2.39-5.72l21-18.06,28-22.14c2.31-2.06,4.49-4.27,6.95-6.13,2.81-2.13,5.86-3.94,8.81-5.89l10.35-5.52c-2.58,6.09-4.59,11.15-6.86,16.09-3,6.63-6.06,13.27-9.53,19.67a9.26,9.26,0,0,1-5.36,4.23c-5.8,1.3-11.76,1.89-17.67,2.71-2.08.29-4.19.41-6.32,1.61,5.84,1.12,11.65,2.38,17.52,3.32C254.24,230.73,254.09,232.51,252.24,235.14Z"/><path class="cls-7" d="M141.42,344.15c4.54,1.83,9.1,3.62,13.62,5.5,8.48,3.52,17.31,4.16,26.3,3.09,3.82-.46,7.57-1.5,11.36-2.28l.54,2.65-7.84,1.06-13.22.17-24.73-1.29H142.1c4.22,4.73,1.93,7.62-1.27,10.29l2.7,3-5.3,6.6,3.21,5.45c-7.5.07-13.86-.23-19-5.24-1.89-9.53-1.82-9.36,7.16-13,2.27-.91,4.2-3.08,5.78-5.08.41-.52-.83-3.49-1.75-3.74-12-3.26-24.07-6.24-36.13-9.28-3.61-1.15-7.19-2.41-10.84-3.4-2.73-.74-5.55-1.12-8.34-1.66l-4.42,2.4-6.41-8.3q.38-3.52.76-7,1.14-12,2.3-23.93l2.24-4.26c1,9.43,2.1,17.81,2.54,26.21.22,4.1,1.49,6,5.56,5.3,6.5-1.05,13-2.23,19.47-3.36,5.35,1.86,10.47,1.83,15.17-1.76l5.3,9,4.69-1,.93-.14-1.66,8.3Z"/><path class="cls-8" d="M127.28,196.13l.57,2.5c2.67-7.15,5-13.46,7.38-19.77l3.84,5c.65-3,.94-4.33,1.34-6.17l4.78,3.78,3.14-3.53,1.5-.24c-2.89,7,.36,11.54,4.79,15.66.44.4.53,1.19.78,1.79q-4.5,8.51-9,17c-8.74,11.93-17.51,23.85-26.12,35.88-.37.5.75,2.07,1.18,3.15a26,26,0,0,0-2.36,3.8c-1.92,4.68-5,9.39-5.09,14.14-.08,3.88-.41,7-2.57,10.05l-4.92,3.06c.54-6.09,1.09-12.18,1.76-19.59L98.5,278.22c-.58-1.71-1.17-3.41-2.16-6.3,1.34-3.42,3.25-8.28,5.16-13.13,2.37-2.2,3.77-4.28,0-6.6-.87-.54-1.26-2.05-1.62-3.19-.93-3-1.72-6-2.56-9q1-3.93,2.11-7.86c6.53,2.67,6.83,9.16,8.73,16.18l4.29-8.1c3.39-7.9,7.23-15.65,10-23.75C124.72,209.91,125.72,202.93,127.28,196.13ZM120.08,235l-1.27-.63-9.21,16.36,2.05,1.1Z"/><path class="cls-6" d="M353.42,499.33c8.39,1,16.78,2.18,25.2,3,2,.2,4-.64,6-1.13,6.46-1.57,12.92-3.2,19.37-4.81.29.64.57,1.29.85,1.93l-20.37,16,.6,1.13L448.37,488c-1.5,5.36-6.69,5.87-10.61,8-5.67,3.09-11.62,5.71-17.08,9.12-4.42,2.77-7.89,7.2-12.49,9.48-10.37,5.14-21.18,9.38-31.79,14-3.8,1.67-7.62,3.34-11.31,5.25-2.28,1.17-2.82,2.59.42,3.29l-11.1,3.91-4-4.32c.72-2.63,1.29-4.69,1.85-6.75v.06l10.69-8.94c-2.93-1.41-5.63-2.29-7.82-3.87-2.67-1.93-5.05-2.11-7.69-.3l-10,3.16-3.9-1.26a23.31,23.31,0,0,1,2.52-3.74c3.52-3.57,9.06-5.24,10.3-11Z"/><path class="cls-9" d="M182.47,188.16c-5.22,7.05-10.41,14.12-15.66,21.15-2.28,3.06-4.69,6-7,9.06l.87.85,11-7c4.39-.5,8.75-1.1,11.78-4.89l4.27,1.7-18.16,7.45.64,1.94a22,22,0,0,1,5.08-.35c1.65.26,3.18,1.23,4.77,1.89-.61,1.31-1.16,2.66-1.84,3.93a8.45,8.45,0,0,1-1.48,1.94c-3.09,3.06-6.08,6.23-9.4,9-.69.57-2.61-.32-4-.54l-5-2.78c-.69,1.79-1.25,3.21-1.81,4.64L152.83,232l-5,3.48A33.34,33.34,0,0,1,153.55,225c5.19-6.58,6.67-13.44,2.24-21,5.52-.86,1.82-4.92,2.62-7.41l10-15.43c1.17-.94,2.63-1.67,3.46-2.85q30.71-43.53,61.3-87.15a5.9,5.9,0,0,1,3.6-2.51q-2.13,10.82-4.27,21.64c-4.26-.1-8.32-2.59-10.88,4.69-1.81,5.13-3.29,12.05-9.55,15.25-1.19.6-1.37,3-2.38,4.22-1.94,2.43-4.24,4.57-6.19,7a6,6,0,0,0-1.53,3.63c.2,3.12.32,5.68-4,5.86-.74,0-1.49,2.1-2.06,3.31a15.11,15.11,0,0,0-.87,3c-.52,2.25-1.49,4.55-1.36,6.78.14,2.62.53,4.27-3,4.75s-5.86,2.84-5.09,7a3.22,3.22,0,0,1-.37,2.28c-1.92,2.54-4,5-6.28,7.77Z"/><path class="cls-4" d="M240.45,270.25a2.52,2.52,0,0,1,.94-.17c4.1,4.56,8.53,8.51,15.25,8.33.58,0,1.18.48,1.77.75l-4.6.67c1,1.41,1.74,2.49,1.67,2.38-.56,3.1-.89,5-1.22,6.75-1.75,1.57-3.77,3.37-5.8,5.17l-7.73.64c.46-2,.8-3.37,1.13-4.79a17.75,17.75,0,0,0-7.27,4.57c-.27.26.62,1.72,1,2.82l-7.25,3.3,2,1.49h0c-1.29-.1-2.57-.21-3.86-.3-2.83-3.17-5.46-.79-8.14.3-.91-.77-1.83-1.53-2.27-1.89.91-1.77,1.69-3.28,2.15-4.16-3-.22-5.57-.5-8.13-.54a36.45,36.45,0,0,0-4.74.49l-2-.91c.62-.69,1.23-1.39,1.84-2.09l-.45-1.11-7.17,1.47c0-2.57-1-5.93.28-7.73s4.74-2,7.91-3.08l-5.39-8.13,5.66-5.23,12.25-6.34c3.53-.35,7.07-.68,10.6-1.07,6.51-.71,13-1.38,19.52-2.22a50,50,0,0,0,6.05-1.52c.19.44.39.88.58,1.31L236.61,270.3c-7.75.3-11.49,2.67-17,10.86,3.19-1.32,8,1.25,9.34-4.23.12-.48,1.51-1.08,2.16-.94,2.68.56,5.3,1.39,7.86,2.1C239.53,275.05,240,272.65,240.45,270.25Z"/><path class="cls-2" d="M155.37,86.15c2-12,4.31-23.86,5.82-35.87,2.08-16.63,3.67-33.34-1.82-49.8l1.4-.48c3.07,6.72,6.67,13.26,9.08,20.21a142.76,142.76,0,0,1,7.63,42,20.15,20.15,0,0,0,.21,3.48c1.44,6.88,1.21,13.24-4.79,18.53l4.94-2.87c-.51,6.27-1,12-1.44,17.8l-5.73,3.5c-2.06-.61-4.75-2.15-7.34-2-4.7.27-6.12-1.45-5.35-5.79.34-1.94.38-4,.83-5.87C159.62,85.54,158.14,85.14,155.37,86.15Z"/><path class="cls-10" d="M404.38,566.09c16.93.55,33.87,1.65,50.79,1.47,12.74-.14,25.46-1.93,38.19-2.94,11.57-.92,23.15-1.78,34.92-1.76-6.92,1.93-13.8,4-20.75,5.77-17.21,4.39-34.41,8.78-51.68,12.88-7.75,1.84-15.66,3-23.51,4.38a9.56,9.56,0,0,1-3.91-.2c-6.4-1.68-12.76-3.48-19.14-5.24-.36-2.53-1.72-5.47-.88-7.52C410.33,568.25,407.54,567.28,404.38,566.09Z"/><path class="cls-11" d="M95.23,426.1q-1.35-5-2.69-9.93c1.12,1.73,2.25,3.46,4.17,6.4,1.19-3.75,2-6.41,2.9-9.2l4.12,1.09c-1.3-3-2.22-5.21-3.13-7.32,3.81-2.75,3.81-2.75.68-12.91-2,4.43-3.41,7.66-4.84,10.89-1.54-6.81-7.48-12.77-2.92-20.06,10.64,5.52,22.31,9.19,31.39,17.56.4.37,2.14-.73,3.26-1.14l.36-.35,12,6.8a41.9,41.9,0,0,0,3,5.8c2.84,3.91,5.92,7.63,8.91,11.43-4.07-2.55-7.93-5.51-12.24-7.53-5.25-2.46-10.88-4.12-16.9-6.33,1.2,3.63,2,5.95,2.77,8.35l6.71,1.62c-.19,1.68-.89,3.55-.37,4A198.28,198.28,0,0,0,148.2,438c4.48,3.11,9.54,5.4,14.34,8l-1.09,1.07c-11.46-5.7-22.88-11.49-34.42-17-2.31-1.11-5.07-1.28-7.62-1.89-1.41-2.24-3.13-4.8-5.9-2.79-1,.7-.16,3.85-.16,6.1l-4.94-.87v5.56l-8.63-13.65Z"/><path class="cls-12" d="M365.51,537.22c-3.24-.7-2.7-2.12-.42-3.29,3.69-1.91,7.51-3.58,11.31-5.25,10.61-4.65,21.42-8.89,31.79-14,4.6-2.28,8.07-6.71,12.49-9.48,5.46-3.41,11.41-6,17.08-9.12,3.92-2.14,9.11-2.65,10.61-8l37.57-17,1,1.16c-4.47,4.38-8.42,9.52-13.51,13-7.81,5.31-16.53,9.28-24.61,14.23-2.61,1.6-4.18,4.83-6.64,6.78-4.8,3.83-9.9,7.28-14.88,10.89-11.94.7-23.56,2.63-34.29,8.42,7.06.65,14,.53,21,.73,1.8,0,3.57,1.09,5.36,1.68l-1.08,1.22c-7.08.46-14.21.54-21.22,1.48-7.25,1-14.38,2.73-21.55,4.24-3.05.64-6.05,1.51-9.08,2.28C366.12,537.19,365.81,537.21,365.51,537.22Z"/><path class="cls-13" d="M404.38,566.09c3.16,1.19,5.95,2.16,4,6.84-.84,2.05.52,5,.88,7.52l-4.94.73c-4.45-1.9-8.75-2.27-13.24.25a26.93,26.93,0,0,1-8,2.68c-5.7,1.11-11.9.86-17.11,3-6.25,2.61-11.82-.08-17.67.05a15.22,15.22,0,0,1,.53-3.93c1.28-3.09-.33-4.17-2.87-5.08s-4.76-2.24-7.24-3a11.74,11.74,0,0,0-4.51-.2c-2.44.24-4.86.7-7.29,1.07-.05-.43-.11-.86-.16-1.29l5.58-1.63-27.3-7.3.12-2.1,7.2-.53,33.07.07c.26.54.41,1.48.8,1.58,3.47.94,9.07-.94,7.81,6.15-.06.3,1.36.77,2,1.3,1.57,1.34,3,2.89,4.64,4.12a9.43,9.43,0,0,0,3.8,1.79,32.91,32.91,0,0,0,5.6.08L368.26,584l1,.47L373,579c.13,2.06.21,3.27.32,5,2.89-3.32,5.19-6.32,7.85-8.94,3.28-3.21,4.79-9.31,11.6-7.22,1.28.39,3.08-.92,4.64-1.44Z"/><path class="cls-14" d="M93.52,385.06c-4.56,7.29,1.38,13.25,2.92,20.06,1.43-3.23,2.87-6.46,4.84-10.89,3.13,10.16,3.13,10.16-.68,12.91.91,2.11,1.83,4.27,3.13,7.32l-4.12-1.09c-.88,2.79-1.71,5.45-2.9,9.2-1.92-2.94-3-4.67-4.17-6.4C87.23,396.11,82.2,376,76.43,356c-1.86-6.43-5.69-12.28-8.55-18.44a31.82,31.82,0,0,1-1.27-4.16c.28-.76.56-1.52.83-2.29l6.41,8.3,4.42-2.4c-.3,1.58-.6,3.16-1,5.29.94.33,2.53,1.47,4,1.31,4.17-.45,6,2.52,7.9,5.08a25.56,25.56,0,0,1,3.4,7.17c1.5,4.54,4.53,6.68,9.15,6.6-.28,3.11-.55,6.1-.82,9.2l4.74-.23c-3.21,2.68-8.65,2.6-8.27,8.52Z"/><path class="cls-3" d="M127.28,196.13c-1.56,6.8-2.56,13.78-4.82,20.34-2.8,8.1-6.64,15.85-10,23.75-.53-1-1.5-2-1.53-3.05-.22-6.65-.14-13.31-.35-20-.09-3.21-.63-6.41-.91-9.62-.15-1.81-.17-3.64-.25-5.47,3.8-14.6,8-29.12,11.23-43.86,1.67-7.7,1.57-15.78,2.22-23.13C128.4,143.52,131.29,171.92,127.28,196.13Z"/><path class="cls-15" d="M182.47,188.16l-3.49-2.3c2.29-2.8,4.36-5.23,6.28-7.77a3.22,3.22,0,0,0,.37-2.28c-.77-4.18,1.55-6.53,5.09-7s3.17-2.13,3-4.75c-.13-2.23.84-4.53,1.36-6.78a15.11,15.11,0,0,1,.87-3c.57-1.21,1.32-3.28,2.06-3.31,4.28-.18,4.16-2.74,4-5.86a6,6,0,0,1,1.53-3.63c1.95-2.42,4.25-4.56,6.19-7,1-1.26,1.19-3.62,2.38-4.22,6.26-3.2,7.74-10.12,9.55-15.25,2.56-7.28,6.62-4.79,10.88-4.69l-4.2,18.86c-.63,1.83-1.26,3.65-2.05,6h10.56l.12,1-12.44,2.18.33-1.83L224,136,196.9,170.64l1.24,1.34q3.57-2.92,7.13-5.86l.15,6.08c-.76,5-4.34,6.66-9,7.82-.31-1.82-.53-3.2-.92-5.56C190.88,179.32,186.67,183.74,182.47,188.16Z"/><path class="cls-16" d="M140.42,582.16c-5.66-6.62-11.87-1.94-17.9-.88a37.6,37.6,0,0,0-6.47-.63c-3.31.25-6.58,1-9.87,1.49l-1-1.75,5.73-5.58-10.43-1.52-1.11-1.13,9.12-4.89a7.88,7.88,0,0,1,2-.29c6.39.73,12.73,1.5,18.44-2.76.6-.46,2.48,0,3.2.63,6.42,5.8,16,7.21,20.45,16.21,1.85,3.76,6.18,8.82,12.69,5.62.27-.13,1.48,1.67,2.25,2.57l5.86,14.92.09-.06-3,13.16q-.66,11.91-1.33,23.81c-.93-2-2.43-3.87-2.69-5.93-.94-7.69-1.43-15.43-2.2-23.14-.39-3.91-1.77-7.88-1.38-11.69.85-8.27,1-8.58-7-11.46-2.94-1.06-7-1.55-8.39-3.7C145.45,582.05,143.19,582.16,140.42,582.16Z"/><path class="cls-17" d="M308.34,486c9-4.68,17.88-9.4,26.88-14a5.18,5.18,0,0,1,3.76-.55c12.06,4.92,23.47,1.37,34.9-2.39,1.38-.45,2.84-.65,4.26-1,.23.45.45.91.68,1.36l-19.43,10.63c-1.65.48-3.66.51-4.9,1.5-15.92,12.69-34.29,21.17-52.13,30.55L306.3,508c5-4,12.81-4.15,15.51-11.54C315.92,496.83,309.18,491.44,308.34,486Z"/><path class="cls-18" d="M282.36,642.09c-17-1.56-34.08-2.86-50.37-8.71-6.64-2.38-11.77.58-13.93,7.11-1,3.08-3.11,5.8-4.72,8.68L210.72,652c-1.34-3.37-1.59-7.16-6.31-5.85-.27.08-1.74-2.31-1.7-3.52,0-1.54,1.07-3,1.67-4.57l-.74-9.71.74-.26c.27-3,1.91-7,.57-8.69-6.36-8.07-5.37-22-19.54-23.84l.85-1.11,11.2,3.57,8.81,5.17,14.06,11.25c-1.43,4.21-3.62,6.74-9.38,2.64,0,2.73-.64,5,.12,5.68,2.33,2.16,5.06,5,7.9,5.3,9.76,1.17,19.64,1.4,29.47,2L259.67,634l20.66,6.33Z"/><path class="cls-19" d="M99.42,572.16l1.11,1.13A16.12,16.12,0,0,0,98,576c-2,3.3-3.75,6.7-5.61,10.06l-8,1c-1.62-.3-3.3-1-4.85-.83-5.76.8-9.33-2.29-12.65-6.47l3-3.75c-.07-.56-.15-1.11-.23-1.67-2,0-4.12-.46-5.95.08-5.71,1.7-11.28,3.87-17,5.67-3.72,1.18-7.54,2.06-11.31,3.07l-5,.93-.9-1.82,6.11-2.21c6.8-4,12.69-9,16.76-15.94,1.66,0,3.65-.68,4.92,0,4.1,2.24,6.93,1.51,9.14-3,2.73,2.17,5.42,4.4,8.23,6.46.87.64,2.43,1.48,3.09,1.12,4.3-2.32,8.43-5,12.62-7.48l7.16,6.58H93.08c.58,2.14,1,3.83,1.57,5.86Z"/><path class="cls-1" d="M262.17,334.22,272.69,347l-2.44.64c1,4.85,2,9.69,3.16,15.33l-7-1c-2.22-.64-4.44-1.34-6.68-1.9-6.83-1.72-13.51-3.76-19.31-7.95l-2.26-3.37,10.4,1.2c-3.58-2.6-3.58-2.6-2.93-5l16.73.91c0-.6,0-1.2.08-1.8l-22.62-.82c-5.12.67-11.15-1.38-14.42,4.82h-2c.49-4.58,4-8,8.79-8.82a64.83,64.83,0,0,0,6.72-2c-4.62-3-4.17-5.36-1.25-7.73a13.09,13.09,0,0,0,1.81-2.32,11.21,11.21,0,0,0,2.5,1.47C248.69,330.62,255.44,332.4,262.17,334.22Z"/><path class="cls-20" d="M191.32,687c.7-1.29,1.39-2.59,2.08-3.88,2.09-2.46,4.17-4.93,6.92-8.18,2.55.11,1.65,2.7,1.09,5.12l-12.72,23.16c-3.09,3.91-6.09,7.89-9.3,11.69a47,47,0,0,1-4.74,4.42c0,1.77.49,3.64-.09,5.08-1.84,4.59-4.09,9-6.18,13.51l-4.14,3.13c-1.33.64-2.93,1-3.92,2-2.15,2.16-4,4.62-6,7L141.25,758l-.43-.37c2-2.3,4.65-4.29,5.76-6.94,3.89-9.26,13.84-13.25,18.92-22.87-1.84,1.44-2.91,2.24-3.94,3.08-3.69,3-5.89,8-12.4,6.9-2.51-.43-5.58,2.43-8.74,3.44,6.61-4.52,7.93-13.5,16-17.18,4.62-2.11,8-6.78,12.06-10.24,4.93-4.25,9.91-8.45,14.86-12.67C188.68,698,189.68,692.32,191.32,687Z"/><path class="cls-21" d="M140.42,582.16c2.77,0,5-.11,7.1,3,1.43,2.15,5.45,2.64,8.39,3.7,8,2.88,7.85,3.19,7,11.46-.39,3.81,1,7.78,1.38,11.69.77,7.71,1.26,15.45,2.2,23.14.26,2.06,1.76,4,2.69,5.93-1.29,8.17-6.59,12.45-14.12,14.61-1.26.36-2.47.89-3.71,1.34l-3-2.81c1.4-1.79,3.74-3.43,4.07-5.39,1.92-11.77,3.52-23.6,4.93-35.45.48-4-1.7-6.65-5.89-7.27-.09-.81-.19-1.63-.35-3l-2.54,2.8C147,597.36,149.22,587.8,140.42,582.16Z"/><path class="cls-16" d="M35.42,583.16c3.77-1,7.59-1.89,11.31-3.07,5.67-1.8,11.24-4,17-5.67,1.83-.54,4-.08,5.95-.08.08.56.16,1.11.23,1.67l-3,3.75c3.32,4.18,6.89,7.27,12.65,6.47,1.55-.21,3.23.53,4.85.83l-28.25,5.77a4.17,4.17,0,0,1-2,.24c-9.09-3.28-12.08,3.95-15.54,9.44-5.7,9-10.78,18.49-16.89,27.85q1.29-8.62,2.57-17.25c1.25-1.49,3-2.79,3.65-4.51,1.72-4.41,3-9,4.39-13.53,2.37-2.43,6.17-4.5,1.85-8.52C33.86,586.22,35,584.33,35.42,583.16Z"/><path class="cls-22" d="M197.46,598.06l-11.2-3.57-.85,1.11c14.17,1.89,13.18,15.77,19.54,23.84,1.34,1.69-.3,5.73-.57,8.69l-8.55-15.65-1.68.41c-.58,1.6-1.65,3.21-1.65,4.81a62,62,0,0,0,1.05,8.3c-.35,2-.69,4.11-1,6.16q-5.62-13-11.23-26l-1.27.35c-.06,1.07-.12,2.15-.17,3.23l-.88.39a21.38,21.38,0,0,0-2.27-3.75,16.1,16.1,0,0,0-3.3-2.17q-2.94-7.45-5.86-14.92l2.53,1.06c3.69,1.53,6.58-.11,7.16-4.13l3.1,1,5.08-5.93c1,1,2,2,3,3l9.06,4.89Z"/><path class="cls-23" d="M100.31,324.06c-6.49,1.13-13,2.31-19.47,3.36-4.07.66-5.34-1.2-5.56-5.3-.44-8.4-1.58-16.78-2.54-26.21l-2.24,4.26c.82-5.74,1.74-11.47,2.44-17.22.73-6,1.24-12.06,1.87-18.08.1-1,.31-1.95.46-2.92,0,4.86,4.36,9.1,1.82,14.5-.61,1.28,1,3.59,1.52,5.42l5.64-2.73c0,3,.07,6,.11,9.05-4.49,13.56-4.69,15.54-2.24,18.09l3.27-4.15c.16,1.26,0,2.65.52,3.75,1.54,3.37,3.33,6.62,5.44,10.75l10-4.22C102.83,316.45,105.31,320.59,100.31,324.06Z"/><path class="cls-2" d="M302.36,512.12c17.84-9.38,36.21-17.86,52.13-30.55,1.24-1,3.25-1,4.9-1.5l-8.2,10.25,5.55,2.51L347,498.11l6.46,1.22-7.07,4.88-39,12.93L280,524.36l-.51-1.63,3.9-2.77,10-3.87,3-1Z"/><path class="cls-24" d="M155.4,195.16c-.25-.6-.34-1.39-.78-1.79-4.43-4.12-7.68-8.66-4.79-15.66l-1.5.24-3.14,3.53-4.78-3.78c-.4,1.84-.69,3.15-1.34,6.17l-3.84-5q2.19-7.26,4.37-14.52l4.8-16.2.36,0h.36a14.28,14.28,0,0,1,3.89-.19c6.89,1.55,10.67-.4,13.59-7a21.19,21.19,0,0,1,2.83-3.8c0,.33,0,.67,0,1-1.25,6.16-6.57,11.53-3.55,18.52a1.14,1.14,0,0,1-.23.93c-3.46,4.57-5.91,9-5.55,15.46.18,3.12-.07,6.17,1,9.31C158.54,186.8,159.94,191.43,155.4,195.16Z"/><path class="cls-25" d="M262.17,334.22c-6.73-1.82-13.48-3.6-20.19-5.48a10.89,10.89,0,0,1-2.5-1.48L232,329l-7.63-.06,1.68-2.32c-1.44-4.42-2.48-7.69-3.59-10.95a35.15,35.15,0,0,0-2-5.21,42.1,42.1,0,0,0-3.07-4.42l2-1.88c1.15.29,2.53,1.12,3.4.75,1.43-.61,2.53-2,3.76-3.06l3.86.31c-1.3,4.12,2.33.85,3,2-1.82,2.66-6.5,3.41-5.93,8.23,2.24-.89,4.06-2.36,5.66-2.14,8.09,1.07,16.12,2.58,24.17,3.93Q259.75,324.2,262.17,334.22Z"/><path class="cls-17" d="M273.45,435.32c3.32,1.14,6.81,1.95,9.85,3.59,1,.52.71,3.27,1,5-1.16-.18-2.87-1-3.38-.46-3,2.91-6.26,5.82-8.55,9.3-2.45,3.71-3.93,4.38-7.89,2.21-5-2.72-10.18-5.1-15.29-7.63,2.73,3.87,5.37,7.55,8.85,10.09s7.85,4,11.82,5.89l-.48,1.49L265.21,466c-3.47-1.64-6.76-3.56-10.93-1.73-3.4,1.49-7.05-1.58-7.57-5.47-.57-4.18-1-8.61-6.11-10.28-1.25-.41-2.23-1.67-4.19-3.22h7.66c-1.62-5.1-5.4-6-11.36-3.32a18.62,18.62,0,0,1-1.28-3.84,33.89,33.89,0,0,1,.11-5l10.65,3.29,6.32,5.7a45.59,45.59,0,0,0,5.73,4.53c1,.55,3.13.49,3.81-.21,3.27-3.37,6.21-7.05,9.27-10.62l.7,1.31Z"/><path class="cls-26" d="M155.4,195.16c4.54-3.73,3.14-8.36,1.7-12.8-1-3.14-.78-6.19-1-9.31-.36-6.42,2.09-10.89,5.55-15.46a1.14,1.14,0,0,0,.23-.93c-3-7,2.3-12.36,3.55-18.52l6,5.57c-.81,3.54-1.8,7.06-2.31,10.66-.13.89,1.17,2.26,2.14,2.89.41.27,1.82-.64,2.55-1.27,2.58-2.21,5.07-4.53,7.59-6.81-.93,2.62-1.74,5.29-2.81,7.85-3.36,8.06-6.81,16.09-10.23,24.14l-10,15.43-12,15.55,0,0Q150.9,203.67,155.4,195.16Z"/><path class="cls-5" d="M268.38,593.14l20.13-2.94-6.93,1.35,8.22,4.5L278,601.65c3.18,2.17,5.53,3.51,7.57,5.24a52,52,0,0,1,4.74,5.18l-7.91-.93a65.41,65.41,0,0,0-6.67-1.74c-3.34-.52-8.89,3.13-9.83,7.27-.46,2.06,1.32,4.62,2.18,7.23L255.49,622c0-.29-.05-.59-.07-.88,3.27-.6,1.8-1.87.44-3.12L248,610.83c5.22-2.27,8.29-5.35,8.8-10.48.07-.69,2.29-1.46,3.6-1.68,2.4-.4,5.16.18,5.24-3.69C265.68,594.35,267.43,593.75,268.38,593.14Z"/><path class="cls-27" d="M181.48,149.18c-2.52,2.28-5,4.6-7.59,6.81-.73.63-2.14,1.54-2.55,1.27-1-.63-2.27-2-2.14-2.89.51-3.6,1.5-7.12,2.31-10.66l-6-5.57c0-.33,0-.67,0-1s0-.68,0-1c.53-.4,1.36-.68,1.54-1.2,3.47-9.63,6.86-19.28,10.26-28.92L182,90.43h1.29c0,5.68.75,11.48-.21,17s-3.67,10.84-4.94,16.64q3.26-3.82,6.52-7.66l1.3.36Z"/><path class="cls-28" d="M411.36,559l-28.88,2.21-12,1c-2.66-1-5.24-2.6-8-2.92-8-.95-16.22-.3-24-3,3.61-1,7.17-2.39,10.84-2.86,8.45-1.06,17-1.67,25.45-2.46,7.66-.86,15.32-1.74,23-2.58,1.81-.2,3.63-.27,5.44-.39,4.18-.07,7.94.52,8.32,5.81C411.59,555.51,411.4,557.26,411.36,559Z"/><path class="cls-4" d="M95.23,426.1l4.55-3.59,8.63,13.65c2.57,4,5.25,7.88,7.63,12,.62,1.07.27,2.71.36,4.08a8.19,8.19,0,0,0-1,0l-7.88-2.2-.71,1.3,5.77,4.77.06.09-2,5.3c-1.52,3.9-3,7.79-4.59,11.75l-5.68-2.44-1-.57a4.21,4.21,0,0,1-.68-1.31c-1.53-13.18-3.06-26.36-4.48-39.56C94.16,428.28,94.89,427.17,95.23,426.1Z"/><path class="cls-29" d="M155.37,86.15c2.77-1,4.25-.61,3.44,2.85-.45,1.92-.49,3.93-.83,5.87-.77,4.34.65,6.06,5.35,5.79,2.59-.15,5.28,1.39,7.34,2l5.73-3.5c0,1,0,2,0,3q-2.65,7.5-5.3,15c-1.92,1.64-3.79,3.33-5.76,4.9-3.6,2.87-6.71,6.74-11.42,6.68-.62-3-1.09-5.29-1.55-7.55,1-6.35,2.09-12.71,3.29-20l-4.29,3.07Q153.37,95.16,155.37,86.15Z"/><path class="cls-16" d="M348.35,587.2c5.85-.13,11.42,2.56,17.67-.05,5.21-2.18,11.41-1.93,17.11-3a26.93,26.93,0,0,0,8-2.68c4.49-2.52,8.79-2.15,13.24-.25l16.11,9.64-.24,1.46c-4.93-.51-10.18-.12-14.72-1.73-11.67-4.15-22.16.42-33,3.22-.21.06-.18,1.05-.26,1.6l-24.83-3.32C346.91,590.27,344.13,588.08,348.35,587.2Z"/><path class="cls-30" d="M247.42,179.31c-5.95,3.42-11.93,6.81-17.86,10.29q-10.68,6.27-21.26,12.69c-1.34.82-2.45,2-4.57,2.6l3.07-4.19c4.62-3.46,9.25-6.89,13.83-10.38s9-7,14.41-11.18l-12.82,2.93-.53-.89,8.67-9.09,12.89-2.86-.18-1.86c-1.72,0-3.53-.34-5.13.08a51.65,51.65,0,0,0-6.63,2.68l12.85-13.19,8.05-1.65-3.35,3,10.44-2.2c.08.35.16.69.25,1l-9.28,3.91,4.11,3.07a18,18,0,0,1-1.92,2.07c-4.46,3.42-9,6.76-13.41,10.23-.36.28-.11,1.34-.16,2.25,3.44-.92,6-5.52,9.65-1.42Z"/><path class="cls-3" d="M201.41,680.1c.56-2.42,1.46-5-1.09-5.12-2.75,3.25-4.83,5.72-6.92,8.18l2-8c1.51-3.78,3-7.56,4.7-11.75-3.14-.23-6,3.4-6.75-1.35v0c8.92-6.47,6.73-16.29,7.1-25.17l3.95,1.15c-.6,1.52-1.62,3-1.67,4.57,0,1.21,1.43,3.6,1.7,3.52,4.72-1.31,5,2.48,6.31,5.85l2.62-2.87v25.52L210,670.13l-7,16.46C202.32,683.86,201.86,682,201.41,680.1Z"/><path class="cls-11" d="M218.35,262.91l-12.25,6.34-5.66,5.23-1.78-2.54c-1.5,1.19-3.52,2.1-4.35,3.65-1.05,2-1.13,4.43-1.7,7l-3.6-1.34c.84-1.41,1.49-2.52,2.15-3.64l-1.79-.48c-.74-2.2-1.91-4.71-4.46-2.64-3.69,3-6,1.75-9-1-1.73-1.63-4.34-2.32-6.56-3.43,4.12-3.6,8.17-7.29,12.41-10.75a4.39,4.39,0,0,1,3.5-.54c3.58,1.1,7,2.87,10.62,3.69,2,.44,4.23-.49,6.35-.87.62-.12,1.21-.7,1.81-.7,4.73,0,9.46.12,14.19.2Z"/><path class="cls-31" d="M308.34,486c.84,5.46,7.58,10.85,13.47,10.52-2.7,7.39-10.53,7.59-15.51,11.54-5.09-1.36-5.61-7.32-9.32-9.42.65-2.15,1.27-4.23,1.89-6.32l-1.08-.47-5,3.44c.42,1.22.81,2.38,1.21,3.55l-5.55.37-2.19-1.31q4.32-4.69,8.65-9.37l-7.14-3.85,2.69-4.32,19.74.83Z"/><path class="cls-32" d="M265.21,466l4.19-1.17.48-1.49c-4-1.91-8.31-3.33-11.82-5.89s-6.12-6.22-8.85-10.09c5.11,2.53,10.29,4.91,15.29,7.63,4,2.17,5.44,1.5,7.89-2.21,2.29-3.48,5.51-6.39,8.55-9.3.51-.49,2.22.28,3.38.46l-9,7.47,11,4.91,4.37,7.39-5.42,2.3c-4,.74-8.66.48-12,2.41-10.37,6-20.57,5-31.06,1.06,2.06-.42,4.1-.94,6.17-1.23C254,467.42,259.59,466.71,265.21,466Z"/><path class="cls-33" d="M374.73,551c-8.49.79-17,1.4-25.45,2.46-3.67.47-7.23,1.88-10.84,2.86l-21-3.11c2.27-.91,4.49-2,6.82-2.71,10-3.16,20.11-6.23,30.17-9.32l11.1-3.91c.3,0,.61,0,.91-.07l-2.69,4.43,11.73-1.39C375.22,543.77,375,547.36,374.73,551Z"/><path class="cls-34" d="M242.3,490c5.58,2.25,10.15,7.19,17.06,6.1,1.11-.18,2.55,1.68,4.25,2.89l7.63-5,1,2.87L249.33,508l-1.94.22c-.95-2.5-2.35-2.67-5-2.06-4.11.95-8.48.68-12.72,1.13-1.85.2-3.63,1-5.48,1.38-1.15.23-2.59.64-3.48.17a4.41,4.41,0,0,1-1.85-3,40,40,0,0,1,.2-6.3l9.38-1.48,10.52.79C236,494.27,236,494.27,242.3,490Z"/><path class="cls-35" d="M370.44,562.19l12-1-7.93,3.64.3,1.52h22.58c-1.56.52-3.36,1.83-4.64,1.44-6.81-2.09-8.32,4-11.6,7.22-2.66,2.62-5,5.62-7.85,8.94-.11-1.73-.19-2.94-.32-5l-3.73,5.52-1-.47,1.85-5.76a32.91,32.91,0,0,1-5.6-.08,9.43,9.43,0,0,1-3.8-1.79c-1.65-1.23-3.07-2.78-4.64-4.12-.62-.53-2-1-2-1.3,1.26-7.09-4.34-5.21-7.81-6.15-.39-.1-.54-1-.8-1.58Z"/><path class="cls-36" d="M85.39,302.13l-3.27,4.15c-2.45-2.55-2.25-4.53,2.24-18.09,1.34-5.94,2.45-11.95,4.06-17.83,2.8-10.16,5.9-20.24,8.88-30.36.84,3,1.63,6,2.56,9,.36,1.14.75,2.65,1.62,3.19,3.79,2.32,2.39,4.4,0,6.6-2.47,3.53-4.72,7.22-7.44,10.54-4.41,5.39-5,8.54,2.39,12.86Q90.93,292.16,85.39,302.13Z"/><path class="cls-15" d="M35.42,583.16c-.44,1.17-1.56,3.06-1.22,3.39,4.32,4,.52,6.09-1.85,8.52.19-2.42.39-4.85.58-7.27l-1.05-.12c-.47.83-.95,1.66-1.43,2.49-.47,0-1.15-.11-1.4.15-6.91,7.2-12.78,15.09-15.87,24.74L3.89,630.35c-.77-2-1.57-4.12-2.37-6.22,1-1.76,2.78-3.52,2.79-5.28,0-6.69,2.25-12.51,5.48-18.19,1.19-2.09,1.58-4.63,2.39-7.13l-3.37-.88c.86-2.26,1.57-4.16,2-5.18a24.86,24.86,0,0,0,4.62.82c2.47-.09,5.18-1.27,7.34-.58,4.09,1.3,6.2-.08,7.65-3.62Z"/><path class="cls-36" d="M151.5,606.11c4.19.62,6.37,3.27,5.89,7.27-1.41,11.85-3,23.68-4.93,35.45-.33,2-2.67,3.6-4.07,5.39l-14,5.66-7.61,1.24c-.31-.92-.79-2.38-1.27-3.84,4-1.65,7.91-3.34,11.89-4.95,8.36-3.38,11.68-9.86,12.08-18.55C149.88,624.54,150.8,615.33,151.5,606.11Z"/><path class="cls-37" d="M247.23,485.9l-2.69,1.35-12.27-1.95-9-5L221.6,480a4.52,4.52,0,0,0-.22-.8c-.59-4.71,2.29-10.19-3-13.87l4.84-2,2.07-.05.57,3.73c8.93,3.62,18.06,6.84,25.49,13.31Z"/><path class="cls-38" d="M240.41,352.17c5.8,4.19,12.48,6.23,19.31,7.95,2.24.56,4.46,1.26,6.68,1.9l-2.66,1c-2.26-.4-4.51-.94-6.79-1.15s-4.43-.08-6.65-.1c1.55,1.47,3.12,2.93,4.65,4.43.17.17.15.54,0,.05H243.31l-6.81,2.9c-3.43-1.54-7.52-2.39-10-4.86-1.51-1.47-.32-5.5-.81-8.3-.35-2-1.46-3.88-2.23-5.8,0-.67,0-1.33,0-2h2Z"/><path class="cls-9" d="M205.42,172.2l-.15-6.08,13.14-18c3.31-.09,7.19.51,6-5l.86-.14,18.11-1.88q-3.9,7.11-7.81,14.23c-1.53-5-6.33-1.47-10-3.65,2-.35,3.13-.49,4.2-.74s2.17-.6,3.44-1c-7.84-3.37-12.47,2.31-17.43,5.69-3,2.08-4.67,6.24-7,9.6,4.48,2.75,3.78-3.54,6.75-4.56l3.66,4.49,13.05-3.15q-4.41,7-8.84,14.07a61.56,61.56,0,0,1-5.11-5.24c-3.13-4.08-5.56-4.26-9.05-.66C208.28,171.22,206.71,171.57,205.42,172.2Z"/><path class="cls-39" d="M74.45,702.21c-1.36,3.37-2.51,6.85-4.16,10.07-.81,1.59-2.33,3.43-3.9,3.9-5.88,1.72-8,5.27-5.73,10.94.52,1.33,1.23,2.6,2,4.21-8.37-3.46-10.55-10.53-6-17.66,1.27-2,2-4.37,3-6.52a16.08,16.08,0,0,1,2.44-4.24c5.74-5.93,11.62-11.71,17.45-17.55l7.87,1.72a39.64,39.64,0,0,0-3.56,3.41C80.68,694.35,77.59,698.3,74.45,702.21Z"/><path class="cls-17" d="M168.38,738c2.09-4.49,4.34-8.92,6.18-13.51.58-1.44.09-3.31.09-5.08a47,47,0,0,0,4.74-4.42c3.21-3.8,6.21-7.78,9.3-11.69-2.73,8.3-6,16.3-6.66,25.33-.55,7.19-3.88,14.16-5.77,21.28-.57,2.15-.26,4.51-.71,6.71a26.66,26.66,0,0,1-3.23,8.67c1-6,.57-11.1-4.12-15.62-1.14-1.1-.23-4.38-.17-6.65C168.07,741.3,168.26,739.63,168.38,738Z"/><path class="cls-40" d="M364.42,432.16C354.28,436,344.14,439.8,334,443.58c-1.53.57-3.13.95-4.7,1.42-2.38-1.38-4.75-2.77-6.9-4l7.09-6.57,26.92-13.28-5.69,6.63,7.88-1c-.64,1.74-1,2.84-1.45,3.93a35.21,35.21,0,0,0,3.55,1.07C361.91,432,363.18,432,364.42,432.16Z"/><path class="cls-41" d="M84.25,279.14l-5.64,2.73c-.57-1.83-2.13-4.14-1.52-5.42,2.54-5.4-1.77-9.64-1.82-14.5V217.74l1.91-.05C80.8,238,84.59,258.33,84.25,279.14Z"/><path class="cls-42" d="M255.49,622l12.62,1.86c-.86-2.61-2.64-5.17-2.18-7.23.94-4.14,6.49-7.79,9.83-7.27a65.41,65.41,0,0,1,6.67,1.74c-4.51.19-4.6,4.31-6.27,7l1.3,1.94c-2.24,3.53.33,4.82,3.51,5.94l-4.6,3-16.7,5-11.23-3.92c.47-1.05.69-2.35,1.45-3.12C251.62,625.18,253.6,623.66,255.49,622Z"/><path class="cls-43" d="M282.48,402.26c-4.69-1.4-9.36-2.87-14.08-4.17-7.67-2.13-15.38-4.12-23-6.24-.69-.2-1.24-.93-2.63-2l5.86-.42c.1-.36.2-.71.29-1.07L241.06,385l.19-1.33c6,.84,12.06,1.63,18.08,2.53,6.4.95,12.78,2,19.17,3,1,1.59,1.63,3.56,3,4.71C284.56,396.54,285.12,399.12,282.48,402.26Z"/><path class="cls-16" d="M30.38,584.09c-1.45,3.54-3.56,4.92-7.65,3.62-2.16-.69-4.87.49-7.34.58a24.86,24.86,0,0,1-4.62-.82c-.39,1-1.1,2.92-2,5.18l3.37.88c-.81,2.5-1.2,5-2.39,7.13-3.23,5.68-5.46,11.5-5.48,18.19,0,1.76-1.81,3.52-2.79,5.28C-1.7,614.24.57,605,4.9,595.82l-2.1-.31c1.14-6.39,5.34-10.28,10.48-13.42L24.65,577c1.36,3,2.24,5,3.22,7.2l1.61-2Z"/><path class="cls-44" d="M489.3,353c8.33-13.07,18.33-24.65,30.91-34-6.35,15.18-15.65,28.47-26,41.11Z"/><path class="cls-45" d="M347.45,592.05l24.83,3.32,7.76,2.79c-26.12,1.88-51.22-2.25-75.61-11,3.77-2.78,7.7-1.8,11.87-.93C326.63,588.38,337.06,590.13,347.45,592.05Z"/><path class="cls-46" d="M87.44,687.08l-7.87-1.72,9.91-11.15L105.3,666l3.15-1.78c5.71.81,10.42-.91,14-5.55l3-1.37c.48,1.46,1,2.92,1.27,3.84l7.61-1.24-5,4.27c-3.72,1-8.24-2.46-11.34,2.3-2.31,3.54-5,6.79-7.59,10.17l-2,1.57-1.06-1c-3-.52-6.06-1.36-9.11-1.45a7.41,7.41,0,0,0-5,1.95c-.54.55.77,2.93,1.25,4.48Z"/><path class="cls-6" d="M375.46,540.19l-11.73,1.39,2.69-4.43c3-.77,6-1.64,9.08-2.28,7.17-1.51,14.3-3.27,21.55-4.24,7-.94,14.14-1,21.22-1.48-3.32,8.09-11.37,7.14-17.72,8.57s-12.9.81-19.37,1.25A39.67,39.67,0,0,0,375.46,540.19Z"/><path class="cls-47" d="M236.5,369.1l6.81-2.9c10.21,2.78,20.41,5.61,30.65,8.28,1.1.29,2.45-.35,3.68-.56,1.48,2.92,6,4.92,2.83,9.25-.8-1.21-1.59-2.43-2-3-2,.58-3.86,1.67-5.64,1.54-4.85-.36-9.65-1.36-14.5-1.85-4-.4-8-.43-12-.63l-10.9-2.1c8.55-4.8,17.3-.57,26.11-.7-7.53-3.29-14.35-8.42-23.17-7.31Z"/><path class="cls-48" d="M258.41,279.16c-.59-.27-1.19-.77-1.77-.75-6.72.18-11.15-3.77-15.25-8.33l5-2.87c1.83,2,3.58,4.1,5.53,6,1,1,2.94,2.58,3.58,2.24,1.41-.74,2.28-2.53,3.73-4.35-4.41-1.18-8.45-.79-9.89-5,4.77-3.83,9.41-8,16.2-7.17a46.26,46.26,0,0,1,5.49,1.4c-3.37,6.8-6.39,12.91-9.41,19Z"/><path class="cls-49" d="M329.48,434.4,322.39,441c2.15,1.26,4.52,2.65,6.9,4l-18.44,7.22.25.9,8.34-2-17.82,8.05-4.68-2c2.14-1.9,3.54-3.25,5.06-4.46,3-2.41,2.17-4.37-.63-6.11-1-.6-2-1-3-1.57l4-3c2.12,3.89,4.85,3.78,8.09,1.35,2.47-1.85,5.08-3.51,7.62-5.25Z"/><path class="cls-50" d="M364.42,432.16c-1.24-.13-2.51-.16-3.73-.41a35.21,35.21,0,0,1-3.55-1.07c.41-1.09.81-2.19,1.45-3.93l-7.88,1,5.69-6.63,10.16-6.86c.31.1.64.18,1,.25,0,2.75.48,4.78,4,3.16.67-.31,2.07-.42,2.33-.05,2.94,4.11,7.7,2,12.54,3.69Z"/><path class="cls-51" d="M109.39,202.11c.08,1.83.1,3.66.25,5.47.28,3.21.82,6.41.91,9.62.21,6.66.13,13.32.35,20,0,1,1,2,1.53,3.05l-4.29,8.1c-1.9-7-2.2-13.51-8.73-16.18Q104.39,217.13,109.39,202.11Z"/><path class="cls-35" d="M25.22,547.88c-.12,1.28-.23,2.56-.41,4.47,7.1-1.22,8.07-8.36,12.79-11.64,4.44,2.75-.21,5.74.16,8.95l3.59.52,3.12,1.88-2.09,1-4.6.13-3.24.92c-5.83,1.16-8.25,4.79-6.1,9.13-4.24,1.22-6,4.6-7.28,8.38a25,25,0,0,1-1.89,3.48l-4.67,2.06c1.23-3.15,2.6-6.25,3.66-9.45,1.17-3.58,1.9-7.31,3.13-10.87C22.44,553.8,23.93,550.87,25.22,547.88Z"/><path class="cls-15" d="M232.22,162.09l-13.05,3.15-3.66-4.49c-3,1-2.27,7.31-6.75,4.56,2.36-3.36,4-7.52,7-9.6,5-3.38,9.59-9.06,17.43-5.69-1.27.37-2.34.72-3.44,1s-2.17.39-4.2.74c3.67,2.18,8.47-1.31,10,3.65Z"/><path class="cls-52" d="M463.46,393.24,435.32,409c15.29-11.59,29.83-24,41.89-39l4.08,5.08c-5,4.81-10,9.59-15,14.45A33.87,33.87,0,0,0,463.46,393.24Z"/><path class="cls-53" d="M204.38,638.1,200.43,637c-.37,8.88,1.82,18.7-7.1,25.17.41-3.26.49-6.6,1.28-9.77,1.78-7.05.81-13.69-2.1-20.19.35-2,.69-4.11,1-6.16,2.14-1.18,4.08-1.88,6.12.5.88,1,2.62,1.28,4,1.89Z"/><path class="cls-54" d="M277.64,373.92c-1.23.21-2.58.85-3.68.56-10.24-2.67-20.44-5.5-30.65-8.28H255c.12.49.14.12,0-.05-1.53-1.5-3.1-3-4.65-4.43,2.22,0,4.45-.11,6.65.1s4.53.75,6.79,1.15C270.45,364,276.59,365.72,277.64,373.92Z"/><path class="cls-55" d="M95.34,690c-4.69,3.57-6.54,8.45-6.87,14.18-.14,2.24-.17,5.15-1.51,6.53-4,4.13-2.69,6.92,1.76,9.59l-.84,1.23c-2.32-.79-6-1-6.7-2.48-2-4.63-6.8-9.09-2.84-14.93.87-.75,1.77-2.19,2.58-2.14,5,.3,4.52-3.36,5.85-6.53,1.5-3.6,5-6.34,7.72-9.46l1.09,1Z"/><path class="cls-48" d="M301.62,459.19l17.82-8.05c7.42-2.39,14.82-4.85,22.28-7.08,1.43-.42,3.15.12,4.73.22-6,2.34-11.76,5.47-17.95,6.83-9.4,2.08-16.87,7.27-24.45,12.56-4.59,3.19-9.26,6.25-13.9,9.37l-1.8-5,2.35-1.9Z"/><path class="cls-56" d="M318.08,438.2c-2.54,1.74-5.15,3.4-7.62,5.25-3.24,2.43-6,2.54-8.09-1.35l34.8-29.54.73.57Z"/><path class="cls-57" d="M257.32,314.18c-8-1.35-16.08-2.86-24.17-3.93-1.6-.22-3.42,1.25-5.66,2.14-.57-4.82,4.11-5.57,5.93-8.23,6-.27,12.34-2.47,17.53,2.34C253.36,308.75,255.22,311.6,257.32,314.18Z"/><path class="cls-11" d="M218.35,261c.27-1.24.53-2.48.79-3.71l.86,1.26,23.82-9.44-1.67-3.75.7-1.27,7.5,3.21,1.86-3.13c0,10.23-1.13,11.46-11.36,13C233.33,258.4,225.85,259.76,218.35,261Z"/><path class="cls-58" d="M272.26,496.94l-1-2.87c3.89-3.57,7.6-7.39,11.76-10.62,2.06-1.59,5-2.11,7.48-3.11l-2.69,4.32,7.14,3.85q-4.32,4.67-8.65,9.37l-7.51,1.72c-.16-.29-.32-.58-.47-.87l8.82-8.36-.42-.64Z"/><path class="cls-59" d="M419.35,527.93c-1.79-.59-3.56-1.63-5.36-1.68-7-.2-13.93-.08-21-.73,10.73-5.79,22.35-7.72,34.29-8.42Z"/><path class="cls-60" d="M224.52,138.35,237,136.17l-.12-1H226.28c.79-2.31,1.42-4.13,2.05-6l5.7-4.34,16.32-1.6-.7,1.14-13,2.6.14,1,5.5.49-2.46.93,6.43,5.69-1.8,3.12-20.11,2.05C224.43,139.6,224.48,139,224.52,138.35Z"/><path class="cls-61" d="M92.39,586.06C94.25,582.7,96,579.3,98,576a16.12,16.12,0,0,1,2.53-2.71L111,574.81l-5.73,5.58,1,1.75c3.29-.52,6.56-1.24,9.87-1.49a37.6,37.6,0,0,1,6.47.63C112.69,584.18,103,588.15,92.39,586.06Z"/><path class="cls-62" d="M254.38,164.13l-4.11-3.07,9.28-3.91c-.09-.35-.17-.69-.25-1l-10.44,2.2,3.35-3-8.05,1.65,7.14-8.9,7.14,2.82L254.72,153c1.92.11,3.58-.53,5.29-.81,2.79-.46,5.61-.68,8.41-1l-5.76,13.13-5.91-4.52Z"/><path class="cls-63" d="M253.06,146.19c6.95-7,11.65-16.32,20.84-20.9l1.73,1-4.41,14.79Z"/><path class="cls-64" d="M301.62,459.19l-10.92,7-5.43-.18,5.42-2.3-4.37-7.39c5.65-2,9.2-6.19,12-11.21,1,.52,2.08,1,3,1.57,2.8,1.74,3.62,3.7.63,6.11-1.52,1.21-2.92,2.56-5.06,4.46Z"/><path class="cls-38" d="M131.44,689c6.71,2.6,8.06,5.34,5.92,11.08-2-1.68-4-3.87-6.41-5.1a6.3,6.3,0,0,0-5.26.55c-6.26,4-8.4,3.89-14.25-1.44,3.18-3.87,7.5-4.36,12.08-4.08Z"/><path class="cls-14" d="M254.38,164.13l2.37-4.36,5.91,4.52c-1.64,7.66-9.12,9-14.12,13-3.68-4.1-6.21.5-9.65,1.42.05-.91-.2-2,.16-2.25,4.42-3.47,8.95-6.81,13.41-10.23A18,18,0,0,0,254.38,164.13Z"/><path class="cls-49" d="M288.35,468.06l1.8,5c-5.56,5.2-11.89,8.75-19.67,9.22l-2.85-.66c.66-2.3,1.25-4.34,1.84-6.37Z"/><path class="cls-65" d="M273.45,435.32,268,437.08l-.7-1.31c-3.06,3.57-6,7.25-9.27,10.62-.68.7-2.85.76-3.81.21a45.59,45.59,0,0,1-5.73-4.53l7.92-8.93Z"/><path class="cls-66" d="M411.36,559c0-1.74.23-3.49.11-5.21-.38-5.29-4.14-5.88-8.32-5.81l16.29-1.73c.59,2.4,1.17,4.81,1.82,7.47l11.08-6.58-1.46,4.2,1.06,1.53Z"/><path class="cls-67" d="M232.27,485.3l12.27,1.95L242.3,490c-6.34,4.23-6.34,4.23-3.36,8.87l-10.52-.79a23.82,23.82,0,0,1-3.77-1.14c-.93-.44-2.32-1.29-2.33-2,0-.89,1.24-2.61,1.8-2.55C229.52,493,229.82,487.94,232.27,485.3Z"/><path class="cls-68" d="M276.46,415.14,265.23,413c-.51-.71-.91-1.89-1.56-2.06-5.43-1.37-10.91-2.55-16.37-3.78l-3.93-9.22,5,2.23,23,10Z"/><path class="cls-26" d="M481.29,375.07,477.21,370l12.09-17,4.92,7.11Z"/><path class="cls-50" d="M14.6,577.19l4.67-2.06a16.77,16.77,0,0,0,15.33-4.4c2.2-2,5.72-2.48,8.64-3.65-3.39,3.83-8,6.92-7.65,13l-6.11,2.21-1.61,2c-1-2.18-1.86-4.16-3.22-7.2l-11.37,5.07Z"/><path class="cls-23" d="M92.29,483l5.08.28c-.36,7.36-1.63,8.91-8.44,10.17-4.92.9-9.85,1.75-14.77,2.63Z"/><path class="cls-69" d="M253.06,146.19l18.16-5.12q-1.39,5.06-2.8,10.09c-2.8.33-5.62.55-8.41,1-1.71.28-3.37.92-5.29.81l3.72-2.12L251.3,148C251.88,147.42,252.47,146.81,253.06,146.19Z"/><path class="cls-70" d="M123.52,690.05c-4.58-.28-8.9.21-12.08,4.08L95.34,690l.24-3,15.15,3.23.55-1.26c-4.64-3.18-7.78-8.85-14.9-7.9l11-4,1.06,1c-3.34,3.47-2.28,5.81,2,6.85,2.87.69,5.88.86,8.82,1.26Z"/><path class="cls-71" d="M237.79,121.1l10-16.33c4.22,2.07,4.63,4.28,3.4,14.23Z"/><path class="cls-52" d="M170.51,617.27l3-13.16c1.14,2.83,2.87,5.58,3.29,8.51,1,6.91,1.36,13.92,2,20.89l-1.28.14Z"/><path class="cls-72" d="M151.36,104.16l4.29-3.07c-1.2,7.34-2.25,13.7-3.29,20-1,2.68-2,5.35-2.93,8l-3.06-1.44-.76,1.19c-.11-.62-.21-1.24-.31-1.86Z"/><path class="cls-38" d="M246.37,379.23c4,.2,8,.23,12,.63,4.85.49,9.65,1.49,14.5,1.85,1.78.13,3.65-1,5.64-1.54.37.57,1.16,1.79,2,3q-1,3-2,6.05c-3.06-5.25-8.76-3.66-13.28-4.93-3.8-1.07-7.95-.81-11.81-1.71C250.93,382,248.71,380.38,246.37,379.23Z"/><path class="cls-73" d="M94.49,686c-2.67,3.12-6.22,5.86-7.72,9.46-1.33,3.17-.81,6.83-5.85,6.53-.81,0-1.71,1.39-2.58,2.14L80.23,697l-5.78,5.19c3.14-3.91,6.23-7.86,9.43-11.72a39.64,39.64,0,0,1,3.56-3.41l7.06-4.93-.06,0C94.46,683.4,94.47,684.71,94.49,686Z"/><path class="cls-74" d="M268.19,188c-2.95,1.95-6,3.76-8.81,5.89-2.46,1.86-4.64,4.07-6.95,6.13-1.67.13-3.64-.26-4.94.49-4.78,2.78-9.42,5.43-15.12,2.74Z"/><path class="cls-75" d="M129.38,664.15l5-4.27,14-5.66,3,2.81L124.4,669.4Z"/><path class="cls-76" d="M13.18,615.06c3.09-9.65,9-17.54,15.87-24.74.25-.26.93-.11,1.4-.15q-2,6.23-3.94,12.44Z"/><path class="cls-33" d="M240.45,270.25c-.46,2.4-.92,4.8-1.51,7.84-2.56-.71-5.18-1.54-7.86-2.1-.65-.14-2,.46-2.16.94-1.34,5.48-6.15,2.91-9.34,4.23,5.54-8.19,9.28-10.56,17-10.86.31.39.71,1.15.89,1.1A26.47,26.47,0,0,0,240.45,270.25Z"/><path class="cls-77" d="M269.47,475.23c-.59,2-1.18,4.07-1.84,6.37l2.85.66-23.25,3.64,4.07-5.62Z"/><path class="cls-78" d="M230.41,302.16l-2-1.49,7.25-3.3c-.43-1.1-1.32-2.56-1-2.82a17.75,17.75,0,0,1,7.27-4.57c-.33,1.42-.67,2.83-1.13,4.79l7.73-.64,1.91.93Z"/><path class="cls-79" d="M145.3,127.06c.1.62.2,1.24.31,1.86l.76-1.19,3.06,1.44q-2.16,9.48-4.31,19h-.36l-.36,0-4.09-1.95Q142.8,136.62,145.3,127.06Z"/><path class="cls-80" d="M140.31,146.19l4.09,1.95-4.8,16.2c-3.49-.29-4.6-1.86-3.33-5.33C137.81,154.81,139,150.47,140.31,146.19Z"/><path class="cls-81" d="M49.43,525.19l-5.57,5.22c-.19-3.39-.34-5.95-.48-8.52l12-9.75c-.32,1.68-.65,3.35-1,5Z"/><path class="cls-82" d="M432.34,547.14l-11.08,6.58c-.65-2.66-1.23-5.07-1.82-7.47,1.76-.5,3.5-1.07,5.27-1.48,4.65-1.06,9.32-2.06,15.24-3.35Z"/><path class="cls-36" d="M129.38,664.15l-5,5.25-14,7.22c2.55-3.38,5.28-6.63,7.59-10.17C121.14,661.69,125.66,665.14,129.38,664.15Z"/><path class="cls-83" d="M256.43,433.14l-7.92,8.93-6.32-5.7,4.23-4.22,3.79-.85Z"/><path class="cls-84" d="M250.37,295.06l-1.91-.93c2-1.8,4-3.6,5.8-5.17.33-1.79.66-3.65,1.22-6.75.07.11-.69-1-1.67-2.38l4.6-.67,3.25.15c-1.55,4.08-2.65,8.44-4.85,12.13C255.72,293.28,252.58,293.89,250.37,295.06Z"/><path class="cls-15" d="M224.39,140.22l20.11-2.05-1.11,3L225.28,143C225,142.1,224.69,141.16,224.39,140.22Z"/><path class="cls-77" d="M246.3,135.05l-6.43-5.69,2.46-.93-5.5-.49-.14-1,13-2.6Q248,129.72,246.3,135.05Z"/><path class="cls-65" d="M26.51,602.61q2-6.21,3.94-12.44c.48-.83,1-1.66,1.43-2.49l1.05.12c-.19,2.42-.39,4.85-.58,7.27-1.43,4.52-2.67,9.12-4.39,13.53-.67,1.72-2.4,3-3.65,4.51Q25.41,607.86,26.51,602.61Z"/><path class="cls-85" d="M171.09,117.11q2.66-7.48,5.3-15c.28,1.29.55,2.58.83,3.87-3.4,9.64-6.79,19.29-10.26,28.92-.18.52-1,.8-1.54,1.2.39-1.88.63-3.81,1.2-5.64C168,126,169.59,121.56,171.09,117.11Z"/><path class="cls-53" d="M193.34,662.1c.77,4.75,3.61,1.12,6.75,1.35-1.68,4.19-3.19,8-4.7,11.75-.65-2.5-1.3-5-2.08-8l-3.89,5-.86-.41Q191,666.94,193.34,662.1Z"/><path class="cls-86" d="M276.16,618.18c1.67-2.73,1.76-6.85,6.27-7l7.91.93C286.75,616.74,281.23,616.94,276.16,618.18Z"/><path class="cls-77" d="M237.79,121.1l13.39-2.1c-.28,1.41-.56,2.81-.83,4.22L234,124.82Z"/><path class="cls-4" d="M249.38,266.06c1.44,4.24,5.48,3.85,9.89,5-1.45,1.82-2.32,3.61-3.73,4.35-.64.34-2.54-1.24-3.58-2.24-2-1.89-3.7-4-5.53-6Z"/><path class="cls-87" d="M223.25,418.37c0-.88.35-1.9,0-2.6a35.5,35.5,0,0,0-2.69-4.12l1.3-1.26,11.55,9.76Z"/><path class="cls-59" d="M377.4,400.14c2.93,6.8,2.93,6.8-4.07,9.95-.68-1-1.36-2-2.05-3Z"/><path class="cls-30" d="M234.39,198c3.35-5.05,8.83-6.22,14.09-7.81-.25,3.94-3.13,4.77-6.27,5.5C239.57,196.33,237,197.24,234.39,198Z"/><path class="cls-88" d="M276.37,629l4.6-3c-3.18-1.12-5.75-2.41-3.51-5.94L288,627.37Z"/><path class="cls-69" d="M271.39,410.19l-23-10c4.23,1.22,8.52,2.28,12.69,3.69,3.53,1.2,6.93,2.81,10.38,4.23C271.46,408.79,271.43,409.49,271.39,410.19Z"/><path class="cls-66" d="M154.36,750c2-2.34,3.81-4.8,6-7,1-1,2.59-1.34,3.92-2-.26.78-.55,1.55-.79,2.34C162.11,748,159.53,750.77,154.36,750Z"/><path class="cls-84" d="M54.39,517.16c.33-1.67.66-3.34,1-5l8.14-7.82-7.12,12.84Z"/><path class="cls-89" d="M105.3,666l-15.82,8.23C92.94,668,99.8,668.3,105.3,666Z"/><path class="cls-90" d="M123.52,690.05l-4.22-3.75c4.89-2.82,8.25,1.13,12.14,2.74Z"/><path class="cls-31" d="M191.32,687c-1.64,5.28-2.64,10.91-8,14.07Q187.33,694.08,191.32,687Z"/><path class="cls-91" d="M231.31,170.13a51.65,51.65,0,0,1,6.63-2.68c1.6-.42,3.41-.08,5.13-.08l.18,1.86-12.89,2.86Z"/><path class="cls-36" d="M122.42,658.65c-3.55,4.64-8.26,6.36-14,5.55Z"/><path class="cls-67" d="M282.36,642.09l-2-1.76,16,2.78c-.06.42-.13.84-.19,1.26Z"/><path class="cls-52" d="M371.28,407.05c.69,1,1.37,2,2.05,3l-5.81,4.42c-.32-.07-.65-.15-1-.25C368.13,411.85,369.71,409.45,371.28,407.05Z"/><path class="cls-11" d="M97.35,380c-.38-5.92,5.06-5.84,8.27-8.52l-4.74.23c.27-3.1.54-6.09.82-9.2-4.62.08-7.65-2.06-9.15-6.6a25.56,25.56,0,0,0-3.4-7.17c-1.89-2.56-3.73-5.53-7.9-5.08-1.46.16-3-1-4-1.31.41-2.13.71-3.71,1-5.29,2.79.54,5.61.92,8.34,1.66,3.65,1,7.23,2.25,10.84,3.4.82,2.6,1.63,5.2,2.47,7.79.39,1.21,1.18,2.4,1.23,3.62.2,4.63,2.5,6.51,7.15,6.45a8,8,0,0,1,5.31,2.34c3.17,3.39,5.88,7.21,8.78,10.85,5.19,5,11.55,5.31,19,5.24L138.23,373l5.3-6.6-2.7-3c3.2-2.67,5.49-5.56,1.27-10.29h5.35c2.84,1.77,5.84,3.32,8.48,5.35,6,4.59,11.84,1.6,16.25-4.06l13.22-.17c-1.81.84-2.5,4.46-5.68,2.25-.22-.16-2.44,1.59-2.63,2.65-.15.83,1.32,2.72,2.23,2.84a77.51,77.51,0,0,0,10.89.53c2.89,0,4.86,0,4.24,4-.28,1.83,1.15,3.93,1.8,5.91-9-3.22-19.63-3.45-24.84-14L165,362.86a23.52,23.52,0,0,0,3.36,2.28c6.69,2.75,13.41,5.41,20.12,8.09,1.46,1.41,2.85,2.9,4.39,4.21s3,2.26,4.2,3.13c-4.19.67-9.1.09-10.52,2-1.7,2.32-.4,6.83-.4,10.95-2.83.1-9.3-4.15-8.78,4.7l-12.94-10.08c1.89-2.91,3.37-6.78-1.24-7.37-7.25-.92-14.7-.24-22.13-.24,3.28,9.1,6.49,10.52,15.46,6.9,2.75-1.1,5.17-1.06,7,1.65,1.56,4,6.85,8.34-.9,11.72-.3.13-.06,1.47-.07,2.24l-18.07-4.87c-3.34-.9-5.18.5-5.38,3.41l-10.52-.49-.36.35-4.45-2.55,14.05-1.76c-.39-1.52-.77-3-1.49-5.85-7,5.32-11.66,2.36-17.17-2.44-4.85-4.23-11.81-6.07-17.92-8.78C100.11,379.61,98.64,380,97.35,380Z"/><path class="cls-92" d="M223.41,348.15c0,.66,0,1.32,0,2l-9.82-7.2c-1.64,1.75-2.63,3.73-3.63,3.73a19.7,19.7,0,0,1-15.5-6.65c.37-5.39,4.37-3.37,7.66-3.79-.66-1.18-1.54-2.31-2.38-2.28a43.56,43.56,0,0,0-6.37,1c-9.94,1.75-19.86,3.61-29.82,5.21-4.84.78-9.75,1.09-15.27,1.68,2.82,2.85,7.13-1.68,8.12,3.34l-15-1.06-16.68-5.71,1.66-8.3c1.21-.2,2.41-.5,3.63-.58,5-.35,10.12-.09,15-1.08,7.3-1.49,14.43-3.81,21.61-5.84,3.28-.93,6.53-2,9.55-3l-9.1-6.49,9.27-7.12c3,4.21,5-1.7,8.07-.52,1,4.19,4,2.36,6.81,1.1.88,1.73,1.66,3.24,2.19,4.3l6.13-5.75c1.13,1.88,2.28,2.77,4.71,1.46,1.39-.74,3.5-.13,6.36-.13l-3.36,4.28.63.64,9.53-5.41a42.1,42.1,0,0,1,3.07,4.42,35.15,35.15,0,0,1,2,5.21c1.11,3.26,2.15,6.53,3.59,10.95l-1.68,2.32-11.67,2.59.45,2L232,329l7.47-1.74a12.82,12.82,0,0,1-1.81,2.33c-2.92,2.37-3.37,4.7,1.25,7.73a64.83,64.83,0,0,1-6.72,2C227.42,340.15,223.9,343.57,223.41,348.15Z"/><path class="cls-93" d="M265.21,466c-5.62.74-11.23,1.45-16.84,2.25-2.07.29-4.11.81-6.17,1.23L234.56,468l6.76-1.32c-1.88-2.79-4.2-5.4-5.52-8.44-1.24-2.88-1.43-6.2-2.38-10.78-3.19-2.17-4.32,2-6.1,4.67-.3-.63-.6-1.26-.89-1.89l-18-19.13,9.9-2.9,6.31,1.12,6.88,3.76a33.89,33.89,0,0,0-.11,5,18.62,18.62,0,0,0,1.28,3.84c6-2.65,9.74-1.78,11.36,3.32h-7.66c2,1.55,2.94,2.81,4.19,3.22,5.13,1.67,5.54,6.1,6.11,10.28.52,3.89,4.17,7,7.57,5.47C258.45,462.41,261.74,464.33,265.21,466Z"/><path class="cls-94" d="M190.47,430l8.84,5.33-8.13.48,6,6.22c-.3,1.45-.61,2.9-.75,3.57-2.72-.57-4.95-1.23-7.22-1.47a42.57,42.57,0,0,0-5.86.15c-4.87-2.54-9.68-5.18-14.63-7.54-1.3-.62-3-.37-4.55-.52l-2.91,1.18-6-9c-1.32-4.48-2.64-9-4.05-13.72l6.17-.41,4.05,1.85c-.74,6.49,5.48,8,8.61,11.68,2.42,2.83,5.63,5.59,9,6.78s7.29.25,10.94.25C190.19,433.17,190.33,431.57,190.47,430Z"/><path class="cls-95" d="M183.4,444.25a42.57,42.57,0,0,1,5.86-.15c2.27.24,4.5.9,7.22,1.47.14-.67.45-2.12.75-3.57q2.52-2.34,5-4.7l24.18,12.93c.29.63.59,1.26.89,1.89q-1,5.55-2.08,11.12l-2.07.05c-1.82-.77-3.68-1.47-5.46-2.33Q200.53,452.64,183.4,444.25Z"/><path class="cls-96" d="M162.5,403.08c0-.77-.23-2.11.07-2.24,7.75-3.38,2.46-7.69.9-11.72l.92-.94,12.94,10.08c4.5,2.74,9.17,5.25,13.41,8.34,1.6,1.16,2.19,3.7,3.24,5.61L190.55,414c-3.66-4.77-9.14-4.07-14.18-4.73Z"/><path class="cls-11" d="M176.37,409.3c5,.66,10.52,0,14.18,4.73-6,1.8-6.9,3.94-5.2,12.27-1.52-.6-3.06-1.15-4.55-1.79q-9.68-4.2-19.33-8.45l-4.05-1.85-10-5.07,34.19,3.56.24-.59Z"/><path class="cls-97" d="M161.47,416.06q9.66,4.23,19.33,8.45c1.49.64,3,1.19,4.55,1.79l5.12,3.67c-.14,1.6-.28,3.2-.41,4.8-3.65,0-7.65.9-10.94-.25s-6.62-3.95-9-6.78C167,424.09,160.73,422.55,161.47,416.06Z"/><path class="cls-61" d="M156.41,345.21c-1-5-5.3-.49-8.12-3.34,5.52-.59,10.43-.9,15.27-1.68,10-1.6,19.88-3.46,29.82-5.21a43.56,43.56,0,0,1,6.37-1c.84,0,1.72,1.1,2.38,2.28-3.29.42-7.29-1.6-7.66,3.79-3.05.87-7,3.39-9,2.31-5.67-3.1-8.58.55-12.81,2.65-3.11,1.54-7.5.54-11.31.57C159.72,345.57,158.07,345.33,156.41,345.21Z"/><path class="cls-38" d="M238.41,369.12c8.82-1.11,15.64,4,23.17,7.31-8.81.13-17.56-4.1-26.11.7-4.69.7-6.63-3-9.54-5.08l.51-1.36c3.42.54,6.83,1.19,10.26,1.56C239.36,372.53,241.12,372,238.41,369.12Z"/><path class="cls-98" d="M188.44,373.23c-6.71-2.68-13.43-5.34-20.12-8.09a23.52,23.52,0,0,1-3.36-2.28l6.45-4.46c5.21,10.52,15.82,10.75,24.84,14,.34.28.68.56,1,.85l-3.87,1Z"/><path class="cls-15" d="M228.49,396.34c1.4,2.41,2.95,4.76,4.11,7.28.35.75-.46,2.91-.59,2.89-2.88-.27-6-.26-8.52-1.44-1.1-.51-1.15-3.52-1.43-5.43a14,14,0,0,1,.31-3.39Z"/><path class="cls-99" d="M231.54,433.08l-6.88-3.76,21.76,2.83-4.23,4.22Z"/><path class="cls-100" d="M228.49,396.34l-6.12-.09c-.35-2-.7-4-1.3-7.52l13,5.37Z"/><path class="cls-101" d="M218.35,428.2l-9.9,2.9-5.59-6.75.67-1.1Z"/><path class="cls-102" d="M247.3,407.15c5.46,1.23,10.94,2.41,16.37,3.78.65.17,1.05,1.35,1.56,2.06-4.37-.63-8.8-.95-13.05-2C250.35,410.5,248.91,408.47,247.3,407.15Z"/><path class="cls-103" d="M202.25,437.3q-2.5,2.35-5,4.7l-6-6.22,8.13-.48Z"/><path class="cls-11" d="M193.39,374.24l3.87-1L210,376.47l-.41,1.79Z"/><path class="cls-30" d="M169.38,270.07c2.22,1.1,4.83,1.79,6.56,3.42,2.94,2.76,5.28,4,9,1,2.55-2.07,3.72.44,4.46,2.64-6,3.82-11.88,7.72-17.92,11.43-4.23,2.59-4.38,3.22-.6,6.54-.83,1-1.65,2.05-2.48,3.08l0,0c-8.36,3.43-16.7,6.89-25.08,10.26-.5.2-1.25-.22-1.88-.35,0-.28,0-.57,0-.85,4.48-.73,7.32-3.44,9.22-7.43,3.91-8.21,7.89-16.37,11.83-24.55Z"/><path class="cls-7" d="M162.48,275.24c-3.94,8.18-7.92,16.34-11.83,24.55-1.9,4-4.74,6.7-9.22,7.43-.39-3.5-.94-6.81-5.84-5.57-4.06,1-3.43,3.68-2.27,6.52l-2.84.89c-.36-2.64-.71-5.27-1.07-7.9,3.77-3.94,7.61-7.8,11.25-11.84,1.16-1.28,1.51-3.32,2.71-4.53,4.58-4.63,9.35-9.07,14-13.58l5-4Z"/><path class="cls-104" d="M224.41,222.16l-21,18.06c-3.34-2.06-3.87-4.69-1.45-7.73-4.07-4.16-4.06-13.39.15-16.58l1.65,3.36c.16,0,.36.09.47,0,3.9-2.5,7.78-5,10.9-8.21,1-1.38,1.65-3.35,3-4,2.7-1.33,5.75-1.94,9.84-3.22-1.61,4.25-3.38,8-4.39,12C223.11,217.8,224.09,220.06,224.41,222.16Z"/><path class="cls-45" d="M163.3,234.31c1.35.22,3.27,1.11,4,.54,3.32-2.78,6.31-5.95,9.4-9a8.45,8.45,0,0,0,1.48-1.94c.68-1.27,1.23-2.62,1.84-3.93-1.59-.66-3.12-1.63-4.77-1.89a22,22,0,0,0-5.08.35l-.64-1.94L187.65,209l7.88-1.9-6.16,13c-7-2.17-6.46,5.53-9.88,8.64l.83,1.51q4.67-2.72,9.31-5.45l1.23,1.48L182,233.13l.37.85,11.48-6.62-7.25,10.91c-2.55.31-5.12.52-7.65.95-2.89.5-5.76,1.2-8.63,1.82Z"/><path class="cls-105" d="M162.42,267.16l-5,4-10.22-2.4a59.88,59.88,0,0,1,3.7-5c5.41-6,10.9-11.86,16.36-17.77.61,1.65,1.19,3.32,1.82,5,.4,1.05.86,2.09,1.29,3.13Z"/><path class="cls-106" d="M170.37,254.13c-.43-1-.89-2.08-1.29-3.13-.63-1.65-1.21-3.32-1.82-5l3.08-5c2.87-.61,5.74-1.31,8.63-1.81,2.53-.43,5.1-.64,7.65-.95a89.6,89.6,0,0,1-6.36,7.48C177.15,248.73,173.69,251.35,170.37,254.13Z"/><path class="cls-45" d="M183.38,207.34c-3,3.79-7.39,4.39-11.78,4.89-1-3.72.57-6.16,3.44-8.56,2.38-2,4-4.91,6.67-8.29l4,8.59Z"/><path class="cls-38" d="M197.42,589.15l-9.06-4.89,9.64-1.1c-4-3.91-7.83-7.7-11.69-11.48l1.15-1.82,12,2.39-3.3,4.39c3.22,2,7.92,3.22,8.84,5.81,1.32,3.71,2.17,3.58,5,2.29,1.4-.64,3.2-.4,4.81-.59,2.3-.26,4.6-.56,7.91-1-5.73-4.87-11-7.11-17.18-7.77-1.87-.2-3.56-2-5.33-3.13l6.15-1.15,11,4.08,8.7,4.93c-1.29-4.93-3.86-7.47-8.68-6-6.58-3-13.15-6.09-19.79-9-.56-.25-1.62.67-2.45,1l-7.08-2.6,5.18-3.93-3.86-.58V557.2c7.49,3.36,14.66,1.81,22.86-1.42L205.81,553h15.68l.35-1.5-4.48-5.12h4.94c1.78.81,3.64,2.44,5.34,2.28,7.32-.68,14.59-1.88,21.87-2.9l0-1.33c-3.13,0-6.32.42-9.35-.12s-5.9-2-8.84-3.09l.13-.11a27.3,27.3,0,0,1,4.91-.85c3.71,0,4.52-2,4-5.1,3.45,1.05,9.23-.44,6.66,8.09,3.34-.69,5.87-1.1,8.34-1.75,1.55-.41,3-1.59,4.51-1.72,4.5-.37,9-.38,13.53-.54l9.13-1.74.36,1.6-23.45,5.71.06,1.72,9.76.63c.45.45.95,1.32,1.35,1.28,7-.71,15.08,2.55,20.3-5.3.66-1,2.16-1.43,3.28-2.13h2.08c0,1.09,0,2.18,0,3.27-1.26,1.49-2.57,3-3.69,4.54-.13.17,1.13,1.69,1.27,1.62,1.57-.78,3-1.9,4.59-2.59.75-.33,1.82.06,2.75.13.62,2.71-.78,3.68-3,5.28-4.73,3.47-10.16,2.93-15.28,4-1.36.29-3-.92-4.55-1.36-1-.29-2.26-.91-3-.55-3.76,1.85-6.27,0-9.07-2.9-.24,1.82-.45,3.31-.7,5.2-5-.75-9.89-1.68-14.81-2.12-2.73-.24-5,.9-4.44,4.4l-2.08-.83c-5.68-.81-8.34-8.79-15.42-6.5.29,1.51.58,3,1,5.17l-8.88-2.33-.28.69,7.16,4-.49.91-7.77-1.79-.37.88,4.65,3.21c-.64,1-1.24,2-1.83,2.91.67,1.25,1,3,2.07,3.67,4.72,3,6.51,7.66,3.23,11.81-2.24,2.82-2.21,4.31-.19,7,.91,1.23.73,4.68-.31,5.61-1.77,1.59-4.41,2.72-6.77-.49-.8-1.08-3.72-.59-5.67-.81-1.63-.73-4.28-1.08-4.72-2.26-1.86-5-6.38-3.9-10.2-5.64.75,2.09,1.27,3.57,1.79,5Z"/><path class="cls-12" d="M214.53,593.12c1.95.22,4.87-.27,5.67.81,2.36,3.21,5,2.08,6.77.49,1-.93,1.22-4.38.31-5.61-2-2.74-2.05-4.23.19-7,3.28-4.15,1.49-8.81-3.23-11.81-1.05-.67-1.4-2.42-2.07-3.67,6.19,5.45,13,8.32,21.23,5l20-6.08c3.36-.83,7-2.93,10-2.23,7.42,1.75,14.54,4.79,23.22,7.81-2.51,1.14-3.86,2.23-4.4,1.92-5.07-2.9-9.46,1.1-14.2,1.31a12.41,12.41,0,0,0-6.86,2.6c-5,4.06-10.18,2.43-15.39,2.11l-.68-1.61,8.11-4.6c-4.52-3.23-17.6.21-24.47,6.08,6.11,5.61,11.17,12.3,20.66,12.53,3,.07,6,1.34,8.95,2.06-.95.61-2.7,1.21-2.71,1.84-.08,3.87-2.84,3.29-5.24,3.69-1.31.22-3.53,1-3.6,1.68-.51,5.13-3.58,8.21-8.8,10.48l7.83,7.21c1.36,1.25,2.83,2.52-.44,3.12-2.82-2-5.66-3.93-8.44-6-5.18-3.78-10.11-8-15.54-11.34C225.77,600.32,218.49,599.37,214.53,593.12Z"/><path class="cls-7" d="M370.44,562.19l-25,1-33.07-.07-15.08-.51c-1.59-.06-3.18-.19-5.22-.31l14.36-11.21,2.8.92,8.15,1.1,21,3.11c7.8,2.7,16,2.05,24,3C365.2,559.59,367.78,561.18,370.44,562.19Z"/><path class="cls-86" d="M263.41,565.16l-20,6.08,2.65-5.55-14-5.44.39-.94,12,3.83v-4l2.08.83Z"/><path class="cls-85" d="M309.27,552.06l-2.8-.92-.15-4.87.12-3.08,10.87-6.89,3.28,4.87c-.74,6.22-5.2,8.71-10.46,10.41A4.91,4.91,0,0,0,309.27,552.06Z"/><path class="cls-106" d="M306.44,543.19l-.12,3.08-5,1.68c-.93-.07-2-.46-2.75-.13-1.6.69-3,1.81-4.59,2.59-.14.07-1.4-1.45-1.27-1.62,1.12-1.59,2.43-3,3.69-4.54Z"/><path class="cls-70" d="M115.41,452.16a8.19,8.19,0,0,1,1,0c6.39,7.79,15.21,11.25,24.6,13.52.78.19,2.45-1.34,3-2.42,1.72-3.45,3.09-7.06,5.09-11.75l7.28,6.63,9.95,14c-3.29-.48-6.7-3.5-9.93.22l2.33,3.8c-2.36.2-4.32-.17-5.49.63s-2.55,3.49-2.12,4.08c2.27,3.07,5.09,5.73,8.32,9.19.09-.17-.49,1-1.06,2.12l-2.61-.11-4-1.27,4.72,7.22-11.56-3.67-.92,1.46,13.36,10.38c-2.81-.83-5.92-1.14-8.36-2.57-5.26-3.1-10.09-6.93-15.3-10.11-1.68-1-4-1-6-1.42a33.82,33.82,0,0,0,3.67,4.6c2.2,2,4.7,3.63,7.07,5.42a68,68,0,0,1-7,1.51c-3,.35-6.12.33-9.18.47l-11.8-5.95a17.59,17.59,0,0,0-2.7-3.37,22.27,22.27,0,0,0-4.17-2.09,34,34,0,0,0-1.49,3.88c-.65,2.51-1.13,5.06-1.68,7.59l-3,.95a5.05,5.05,0,0,1-.09-1.92c2.2-5.74,5.93-11.1,3.43-17.84a5.1,5.1,0,0,1,.89-4.23c3.51-4.11.73-7.17-1.31-10.43l5.68,2.44c1.54-4,3.07-7.85,4.59-11.75,4.41,4.34,6.55,9.91,7.68,16.54-1.74,2.21-1,4.4,2.6,5.22,3.16.72,6.21,2,9.38,2.71,1.23.29,3.52.25,3.83-.38,2.22-4.5,4.05-9.19,5.89-13.55l-27.37-15.84-.06-.09Z"/><path class="cls-12" d="M43.24,567.08c-2.92,1.17-6.44,1.67-8.64,3.65a16.77,16.77,0,0,1-15.33,4.4,25,25,0,0,0,1.89-3.48c1.33-3.78,3-7.16,7.28-8.38l3.95-1h1.89c3.75,4.56,5.64,4.8,9.51,1.15,1.17-1.1,2.3-2.24,3.45-3.37,2.62-3.89.21-6-2.77-8l-3.12-1.88,9-11v3.45l5.12-2.43c1.94-3,2.54-7.11,7-7.85,1.07,2,2.6,3.84,3.11,6,.73,3.07.73,6.33,1.06,9.64,6.91-1.8,10.29,4.8,15.43,7.74a64.83,64.83,0,0,1,6.28,4.61l2.06,1c-4.19,2.53-8.32,5.16-12.62,7.48-.66.36-2.22-.48-3.09-1.12-2.81-2.06-5.5-4.29-8.23-6.46-3.44-6.74-8.75-4.37-13.62-2.45-1.5.59-2.33,2.85-3.47,4.34Z"/><path class="cls-51" d="M90.35,561.26l-2.06-1-5.87-8.36,4-5.76,7-.55c.61-1.13,1-2.87,1.88-3.27,6-2.59,1.83-4.2.53-5.49l-8.19,6.45L83.72,539l5.92-.7c.51-2.84,1-5.58,1.68-9.33.53.16,2.2.6,3.79,1.21s2.85,1.31,4.28,2c7.72,2.35,10.21,6.21,8.06,14-1,0-2.59-.4-2.86,0-3.35,5.43-5.26,1.14-7.58-1.5l-2.93,5.29,1.69-.2a27.93,27.93,0,0,1,2.47,4.46A10.3,10.3,0,0,0,108.56,561l6.15-.57-6.17,6.85-9.12,4.89-4.77,1.54c-.54-2-1-3.72-1.57-5.86h4.43Z"/><path class="cls-9" d="M62.41,532.33c-4.44.74-5,4.89-7,7.85-3.82-4.77-3.8-10.5.15-14.64,3.75-3.95,6.53-9,12.57-10.26,3.09-.62,6.4-2.51,7.12,2.86l4.86-2.86a49.89,49.89,0,0,0,4.28,4.24c3.88,3,3.6,7.39-.66,9.78-1.27.72-2.3,1.85-3.54,2.63-1.4.87-3.38,2.52-4.29,2.1a10.24,10.24,0,0,1-4.08-4.44c-1.07-2-1.47-4.35-2.16-6.55L68,522.83Z"/><path class="cls-6" d="M107.45,546.24c2.15-7.84-.34-11.7-8.06-14,.18-1.39.37-2.78.56-4.17l1,.9,4.43-2.76,10,3,16,11.39c-.15.28-.29.56-.44.83l-8-2.23-.6,1.58,8.93,4.56-13-1,3.45,5.85c-2.7.3-5.19,1.25-7.17.62C112.07,549.88,109.85,547.8,107.45,546.24Z"/><path class="cls-30" d="M97.45,505.15l3-.95c1.33,1,4.49.94,2.26,4-.12.17,1.18,1.34,1.81,2-.21,3,2.56,6.37-1.12,9-.06.05,1.08,1.64,1.5,2.58a11.42,11.42,0,0,1,.56,2.27c-3.48-.86-7.12-1.36-10.37-2.76-1.37-.59-3-3.42-2.63-4.67C93.62,512.7,95.71,509,97.45,505.15Z"/><path class="cls-107" d="M105.42,524.12a11.42,11.42,0,0,0-.56-2.27c-.42-.94-1.56-2.53-1.5-2.58,3.68-2.63.91-6,1.12-9l15.88,12-.15,2.64a18.83,18.83,0,0,1-3-1c-2.28-1.23-4.49-2.6-7.52-4.37l5.76,9.65-10-3Z"/><path class="cls-23" d="M92,496c.21,10.73.09,10.87-7.68,9.11C86,497.47,87.72,495.43,92,496Z"/><path class="cls-108" d="M87.63,543.3l8.19-6.45c1.3,1.29,5.44,2.9-.53,5.49-.93.4-1.27,2.14-1.88,3.27l-7,.55C86.81,545.21,87.22,544.25,87.63,543.3Z"/><path class="cls-96" d="M54.39,517.16h2c-1.49,2.83-2.94,5.69-4.57,8.43-.16.25-1.56-.25-2.39-.4Z"/><path class="cls-1" d="M129.41,301.16c.36,2.63.71,5.26,1.07,7.9-1.61,5.31-6.16,5.48-10.55,6.74-4,1.15-7.59,4-12.13,6.51h7.69c-4.71,3.58-9.83,3.61-15.18,1.75,5-3.47,2.52-7.61,1-11.65l-10,4.22c-2.11-4.13-3.9-7.38-5.44-10.75-.5-1.1-.36-2.49-.52-3.75q5.53-10,11.06-19.94c.69-1.32,1.37-2.65,2-4l9.79-15.56c-.67,7.41-1.22,13.5-1.76,19.59l-4.72,18.23,5.74-3.17,13.89-3.9,0,.47L106.61,306.3l1,1.26,5.67-2.49c3.77-1.91,10,.26,10.69-6.51Z"/><path class="cls-14" d="M122.39,373.16c-2.9-3.64-5.61-7.46-8.78-10.85A8,8,0,0,0,108.3,360c-4.65.06-7-1.82-7.15-6.45-.05-1.22-.84-2.41-1.23-3.62-.84-2.59-1.65-5.19-2.47-7.79,12.06,3,24.14,6,36.13,9.28.92.25,2.16,3.22,1.75,3.74-1.58,2-3.51,4.17-5.78,5.08C120.57,363.8,120.5,363.63,122.39,373.16Z"/><path class="cls-30" d="M176.35,306.07l-9.27,7.12,9.1,6.49c-3,.94-6.27,2-9.55,3-7.18,2-14.31,4.35-21.61,5.84-4.87,1-10,.73-15,1.08-1.22.08-2.42.38-3.63.58l-.93.14c0-.92-.25-2.45.14-2.65a92,92,0,0,1,11.18-5.08c4.11-1.42,8.41-2.27,12.63-3.37,7.47-6,14.12-12.69,19-21l0,0,6.38.21-.06,1.33-4.39,2.67.34.67,4.79-1.91L168.18,309l8-3.76C176.26,305.52,176.3,305.8,176.35,306.07Z"/><path class="cls-92" d="M149.42,319.18c-4.22,1.1-8.52,1.95-12.63,3.37a92,92,0,0,0-11.18,5.08c-.39.2-.11,1.73-.14,2.65l-4.69,1-5.3-9H107.8c4.54-2.53,8.09-5.36,12.13-6.51,4.39-1.26,8.94-1.43,10.55-6.74l2.84-.89,7.19,1-5.3,6.54.7,1.34,9.54-3.55c-1.18,4.88,2.29,2.68,4.1,2.81Zm-26.32-2.06c1.17,2.55,2.19,4.78,3.43,7.47l6.34-2.35C129.93,318.94,128.82,313.49,123.1,317.12Z"/><path class="cls-109" d="M172.18,354.34c-4.41,5.66-10.28,8.65-16.25,4.06-2.64-2-5.64-3.58-8.48-5.35Z"/><path class="cls-110" d="M121.44,293.41l-13.89,3.9a32.48,32.48,0,0,0,3.9-18.12c2.16-3.05,2.49-6.17,2.57-10.05.1-4.75,3.17-9.46,5.09-14.14a26,26,0,0,1,2.36-3.8l4.73-6.2c2.28,3.37,4.55,6.75,6.86,10.17,7.11-3.54,7.11-3.54,7.28,1.86l-3.12,5-2.86,4.1-6.07,7.44,5.17,6.63Z"/><path class="cls-111" d="M126.2,245l-4.73,6.2c-.43-1.08-1.55-2.65-1.18-3.15,8.61-12,17.38-24,26.12-35.88l0,0-7.11,12.93Z"/><path class="cls-103" d="M111.45,279.19a32.48,32.48,0,0,1-3.9,18.12l-5.74,3.17,4.72-18.23Z"/><path class="cls-112" d="M98.5,278.22c-.68,1.32-1.36,2.65-2,4-7.41-4.32-6.8-7.47-2.39-12.86,2.72-3.32,5-7,7.44-10.54-1.91,4.85-3.82,9.71-5.16,13.13C97.33,274.81,97.92,276.51,98.5,278.22Z"/><path class="cls-92" d="M120.08,235l-8.43,16.83-2.05-1.1,9.21-16.36Z"/><path class="cls-26" d="M306.44,543.19l-10.06,1.06c0-1.09,0-2.18,0-3.27l13-6.87c4.49.28,11.36-7.23,11-12.05-1.62-1-3.13-2.26-4.88-2.87a83.07,83.07,0,0,0-8.19-2.05l39-12.93c-1.24,5.72-6.78,7.39-10.3,11a23.31,23.31,0,0,0-2.52,3.74l3.9,1.26-13,11-5.07,5-2,.2Z"/><path class="cls-72" d="M324.41,531.15l13-11,10-3.16c-.25.74-.33,2-.78,2.15-4.26,1.44-6.51,4.78-9.54,9.49l10.13,2.09c-.83-2.71-1.15-3.74-1.79-5.8l6.8,5.18v-.06l-25.42,15.13-.91-1.14c.34-1.16.67-2.32,1.08-3.74l-6.42.86-3.28-4.87,2-.2c1.56.17,3.37.93,4.61.39,2.47-1.08,4.62-2.87,6.9-4.36l.84,1.11.63-4.59Z"/><path class="cls-113" d="M320.59,541.17l6.42-.86c-.41,1.42-.74,2.58-1.08,3.74l.91,1.14,25.42-15.13c-.56,2.06-1.13,4.12-1.85,6.75l4,4.32c-10.06,3.09-20.13,6.16-30.17,9.32-2.33.73-4.55,1.8-6.82,2.71l-8.15-1.1a4.91,4.91,0,0,1,.86-.48C315.39,549.88,319.85,547.39,320.59,541.17Z"/><path class="cls-113" d="M352.25,530.12l-6.8-5.18c.64,2.06,1,3.09,1.79,5.8l-10.13-2.09c3-4.71,5.28-8,9.54-9.49.45-.16.53-1.41.78-2.15,2.64-1.81,5-1.63,7.69.3,2.19,1.58,4.89,2.46,7.82,3.87Z"/><path class="cls-59" d="M137.22,262l3.12-5q3.51-4.47,7-8.93,4.58-6,9.14-11.93l1.81-4.64,5,2.78,7,6.73-3.08,5c-5.46,5.91-10.95,11.8-16.36,17.77a59.88,59.88,0,0,0-3.7,5l10.22,2.4c-4.7,4.51-9.47,9-14,13.58-1.2,1.21-1.55,3.25-2.71,4.53-3.64,4-7.48,7.9-11.25,11.84l-5.49-2.6c-.72,6.77-6.92,4.6-10.69,6.51l8.24-11.19,0-.47,12-13.2,4.16-4.93c1.59-1.86,3.19-3.71,4.76-5.59,2.05-2.46,1.21-4.63-1-6.24C140.22,262.63,138.61,262.49,137.22,262Z"/><path class="cls-114" d="M156.52,236.17q-4.56,6-9.14,11.93c-.39-1.55-.78-3.1-1.44-5.7L137,248.93l-.59-.87,8.88-12.89-6.9-4.08a36.08,36.08,0,0,0,2.9-3.61c1.54-2.53.15-2.84-2-2.4l7.11-12.93,12-15.55c-.8,2.49,2.9,6.55-2.62,7.41,4.43,7.55,3,14.41-2.24,21a33.34,33.34,0,0,0-5.73,10.44l5-3.48Z"/><path class="cls-115" d="M175.43,301.16l-4.79,1.91-.34-.67,4.39-2.67.06-1.33-6.38-.21c.83-1,1.65-2.06,2.48-3.08-3.78-3.32-3.63-3.95.6-6.54,6-3.71,12-7.61,17.92-11.43l1.79.48c-.66,1.12-1.31,2.23-2.15,3.64l3.6,1.34c.57-2.58.65-5.05,1.7-7,.83-1.55,2.85-2.46,4.35-3.65l1.78,2.54,5.39,8.13c-3.17,1.12-6.67,1.31-7.91,3.08s-.28,5.16-.28,7.73l7.17-1.47.45,1.11c-.61.7-1.22,1.4-1.84,2.09l-9.62,8.68,8.62-.65-2.87,2L193.42,311c-.53-1.06-1.31-2.57-2.19-4.3-2.83,1.26-5.81,3.09-6.81-1.1-3.12-1.18-5,4.73-8.07.52,0-.27-.09-.55-.12-.83,2-1.38,5.94-.46,6.29-4.08Z"/><path class="cls-92" d="M202.42,303.18l-8.62.65,9.62-8.68,2,.91c-.1,1.41-.2,2.82-.28,4,3.26,1.08,8.34-2.28,9.24,4.15Z"/><path class="cls-115" d="M214.38,304.24c-.9-6.43-6-3.07-9.24-4.15.08-1.21.18-2.62.28-4a36.45,36.45,0,0,1,4.74-.49c2.56,0,5.1.32,8.13.54-.46.88-1.24,2.39-2.15,4.16.44.36,1.36,1.12,2.27,1.89,0,.3,0,.6,0,.91Z"/><path class="cls-92" d="M218.4,303.07c0-.31,0-.61,0-.91,2.68-1.09,5.31-3.47,8.14-.3-1.23,1.05-2.33,2.44-3.76,3.05-.87.37-2.25-.46-3.4-.75Z"/><path class="cls-104" d="M156.37,458.18l-7.28-6.63c-2,4.69-3.37,8.3-5.09,11.75-.55,1.08-2.22,2.61-3,2.42-9.39-2.27-18.21-5.73-24.6-13.52-.09-1.37.26-3-.36-4.08-2.38-4.08-5.06-8-7.63-12V430.6l4.94.87c0-2.25-.81-5.4.16-6.1,2.77-2,4.49.55,5.9,2.79,6,3.44,12.24,6.59,18,10.39,7.5,4.92,17.8,6,21.88,15.76Z"/><path class="cls-76" d="M156.37,458.18l2.95-3.87c-4.08-9.75-14.38-10.84-21.88-15.76-5.79-3.8-12-6.95-18-10.39,2.55.61,5.31.78,7.62,1.89,11.54,5.55,23,11.34,34.42,17l7,4.07c-1.31,3.13-.91,5.88,1.87,8.06a9.06,9.06,0,0,0,.67,2.39c4.33,6.85,8.78,13.62,13,20.51,1.18,1.91,4.38,4.91-1.46,5-5.22-.46-8.15-3.95-10.8-8-1.6-2.44-3.59-4.62-5.4-6.92Z"/><path class="cls-116" d="M155.3,428.34l6,9a3.13,3.13,0,0,0,.1.8c.38,2.62.75,5.23,1.13,7.85-4.8-2.65-9.86-4.94-14.34-8a198.28,198.28,0,0,1-15.81-12.7c-.52-.45.18-2.32.37-4l-6.71-1.62c-.79-2.4-1.57-4.72-2.77-8.35,6,2.21,11.65,3.87,16.9,6.33,4.31,2,8.17,5,12.24,7.53Z"/><path class="cls-12" d="M176.37,409.3l5.51,2.81-.24.59-34.19-3.56-7-1.21-12-6.8,10.52.49c.2-2.91,2-4.31,5.38-3.41l18.07,4.87Z"/><path class="cls-65" d="M97.35,380c1.29,0,2.76-.38,3.84.11,6.11,2.71,13.07,4.55,17.92,8.78,5.51,4.8,10.13,7.76,17.17,2.44.72,2.85,1.1,4.33,1.49,5.85l-14.05,1.76,4.45,2.55c-1.12.41-2.86,1.51-3.26,1.14-9.08-8.37-20.75-12-31.39-17.56Z"/><path class="cls-117" d="M140.49,407.93l7,1.21,10,5.07-6.17.41c1.41,4.75,2.73,9.24,4.05,13.72l-2.88-3.18c-3-3.8-6.07-7.52-8.91-11.43A41.9,41.9,0,0,1,140.49,407.93Z"/><path class="cls-118" d="M162.54,446c-.38-2.62-.75-5.23-1.13-7.85,1.42,1.9,2.86,3.79,4.27,5.7,1.55,2.09,3,4.23,4.65,6.26a37.66,37.66,0,0,0,3,3l-5-2-7-4.07Z"/><path class="cls-3" d="M224.39,140.22c.3.94.59,1.88.89,2.81l-.86.14-6,5-13.14,18q-3.56,2.94-7.13,5.86l-1.24-1.34L224,136l.82.5-.33,1.83C224.48,139,224.43,139.6,224.39,140.22Z"/><path class="cls-119" d="M107.45,546.24c2.4,1.56,4.62,3.64,7.25,4.49,2,.63,4.47-.32,7.17-.62l-3.45-5.85,13,1c2.82-2.26,5.59-2.55,7.76-.52l-8.48,6c8.87,6.07,17.27,11.9,25.83,17.48.79.51,2.63-.59,4-.94,4.05,2.79,7.94,5.89,12.22,8.29,4,2.25,8.46,3.77,12.71,5.62l-5.08,5.93-3.1-1c-.58,4-3.47,5.66-7.16,4.13l-2.53-1.06c-.77-.9-2-2.7-2.25-2.57-6.51,3.2-10.84-1.86-12.69-5.62-4.43-9-14-10.41-20.45-16.21-.72-.65-2.6-1.09-3.2-.63-5.71,4.26-12,3.49-18.44,2.76a7.88,7.88,0,0,0-2,.29l6.17-6.85-6.15.57a10.3,10.3,0,0,1-10.32-6.67,27.93,27.93,0,0,0-2.47-4.46l-1.69.2L97,544.77c2.32,2.64,4.23,6.93,7.58,1.5C104.86,545.84,106.46,546.23,107.45,546.24Z"/><path class="cls-67" d="M288.48,499.19l5.54-.37c-.4-1.17-.79-2.33-1.21-3.55l5-3.44,1.08.47c-.62,2.09-1.24,4.17-1.89,6.32,3.71,2.1,4.23,8.06,9.32,9.42l-3.94,4.08-6,3c.24-2.08.49-4.17.76-6.48a9.64,9.64,0,0,0-1.87.12c-4,1.06-8,2.66-8.58-4-.09-1-2.13-1.76-3.27-2.63Z"/><path class="cls-22" d="M214.53,593.12c4,6.25,11.24,7.2,16.91,10.74,5.43,3.38,10.36,7.56,15.54,11.34,2.78,2,5.62,4,8.44,6,0,.29,0,.59.07.88-1.89,1.62-3.87,3.14-5.6,4.92-.76.77-1,2.07-1.45,3.12-9.83-.58-19.71-.81-29.47-2-2.84-.34-5.57-3.14-7.9-5.3-.76-.71-.12-2.95-.12-5.68,5.76,4.1,8,1.57,9.38-2.64,4.57,2.63,9.26,4.61,16.31,2.53-3.22-2.13-5.3-3.85-7.65-5-7.12-3.44-14.35-6.66-21.54-10l2.6-3.07c-5.42,2.47-6.57-1.35-7.79-4.94a37.15,37.15,0,0,1-.86-3.79c-.52-1.47-1-3-1.79-5,3.82,1.74,8.34.65,10.2,5.64C210.25,592,212.9,592.39,214.53,593.12Z"/><path class="cls-120" d="M207.45,602.06c7.19,3.3,14.42,6.52,21.54,10,2.35,1.14,4.43,2.86,7.65,5-7,2.08-11.74.1-16.31-2.53l-14.06-11.25Z"/><path class="cls-121" d="M203.64,628.39c-1.35-.61-3.09-.87-4-1.89-2-2.38-4-1.68-6.12-.5a62,62,0,0,1-1.05-8.3c0-1.6,1.07-3.21,1.65-4.81l1.68-.41,8.55,15.65Z"/><path class="cls-122" d="M207.45,602.06l-1.18,1.17-8.81-5.17q0-4.45,0-8.91l4,1.11a37.15,37.15,0,0,0,.86,3.79c1.22,3.59,2.37,7.41,7.79,4.94Z"/><path class="cls-123" d="M49.32,563.05c1.14-1.49,2-3.75,3.47-4.34,4.87-1.92,10.18-4.29,13.62,2.45-2.21,4.47-5,5.2-9.14,3-1.27-.68-3.26,0-4.92,0Z"/><path class="cls-102" d="M49.32,563.05l3,1.07c-4.07,6.91-10,11.91-16.76,15.94-.38-6.06,4.26-9.15,7.65-13Z"/><path class="cls-92" d="M240.41,352.17l-15-4c3.27-6.2,9.3-4.15,14.42-4.82l5.81,1.71c-.65,2.37-.65,2.37,2.93,5l-10.4-1.2Z"/><path class="cls-86" d="M245.62,345l-5.81-1.71,22.62.82c0,.6-.05,1.2-.08,1.8Z"/><path class="cls-18" d="M185.4,581.21c-4.25-1.85-8.69-3.37-12.71-5.62-4.28-2.4-8.17-5.5-12.22-8.3l11.05-3.14.11-1.47c-6.72-3.66-13.46-7.26-20.11-11a26.42,26.42,0,0,1-4.12-3.56c13.57,5.33,25.82,15.68,42,11.06l3.86.58-5.18,3.93,7.08,2.6,11.26,4.89-6.15,1.15a2.92,2.92,0,0,0-.78,0l-12-2.39-1.15,1.82c3.86,3.78,7.71,7.57,11.69,11.48l-9.64,1.1C187.37,583.24,186.39,582.22,185.4,581.21Z"/><path class="cls-1" d="M307.34,517.14a83.07,83.07,0,0,1,8.19,2.05c1.75.61,3.26,1.89,4.88,2.87l-10.06,5.66c-.43-1.9-.77-3.37-1.43-6.21-4.43,2.58-8.07,5-12,6.87s-4.95,4.08-2.63,7.74l-.9,1-24.08,10-9.76-.63-.06-1.72L283,539.08l-.36-1.6-9.13,1.74c.54-1.21.94-3.37,1.65-3.48,3.37-.52,6.69-3.55,10.35-.32.72.63,2.69-.15,4.08-.28-.53-1.22-.73-2.88-1.65-3.56-1.81-1.34-4.06-3-6.06-3-4.56.18-7.07-1.67-8.36-5.77l9.86-2.88-3.9,2.77.51,1.63Z"/><path class="cls-124" d="M283.44,502.18c1.14.87,3.18,1.66,3.27,2.63.59,6.62,4.63,5,8.58,4a9.64,9.64,0,0,1,1.87-.12c-.27,2.31-.52,4.4-.76,6.48l-3,1c-1.61-.28-3.32-1-4.83-.75-5.74,1.09-11.42,2.52-17.13,3.82l10.3-10.92-20.29,9.27-2.92-2.25c1.07-1.24,2-2.28,2.88-3.31Z"/><path class="cls-125" d="M271.41,519.16c5.71-1.3,11.39-2.73,17.13-3.82,1.51-.29,3.22.47,4.83.75l-10,3.87-9.86,2.88Z"/><path class="cls-26" d="M171.09,117.11c-1.5,4.45-3.06,8.89-4.47,13.37-.57,1.83-.81,3.76-1.2,5.64,0,.34,0,.68,0,1a21.19,21.19,0,0,0-2.83,3.8c-2.92,6.59-6.7,8.54-13.59,7a14.28,14.28,0,0,0-3.89.19q2.15-9.48,4.31-19c1-2.68,1.95-5.35,2.93-8,.46,2.26.93,4.52,1.55,7.55,4.71.06,7.82-3.81,11.42-6.68C167.3,120.44,169.17,118.75,171.09,117.11Z"/><path class="cls-126" d="M218.4,303.07l1,1.09-2,1.88-9.53,5.41-.63-.64,3.36-4.28c-2.86,0-5-.61-6.36.13-2.43,1.31-3.58.42-4.71-1.46l2.87-2,12,1.06Z"/><path class="cls-101" d="M232,329l-18.85,4.54-.45-2,11.67-2.59Z"/><path class="cls-104" d="M112.65,456.12,140,472c-1.84,4.36-3.67,9.05-5.89,13.55-.31.63-2.6.67-3.83.38-3.17-.74-6.22-2-9.38-2.71-3.58-.82-4.34-3-2.6-5.22-1.13-6.63-3.27-12.2-7.68-16.54Z"/><path class="cls-104" d="M115.41,452.16,112.59,456l-5.77-4.77.71-1.3Z"/><path class="cls-119" d="M283.44,502.18,261.38,512c-2.79,0-5.68.54-8.33-.05-1.45-.33-2.49-2.51-3.72-3.86l22.93-11.1,14.44-7.21.42.64-8.82,8.36c.15.29.31.58.47.87l7.51-1.72,2.19,1.31Z"/><path class="cls-110" d="M234.56,468l7.64,1.46c10.49,3.92,20.69,4.91,31.06-1.06,3.35-1.93,8-1.67,12-2.41l5.43.18-2.35,1.9-18.88,7.17-18.17,5c-7.43-6.47-16.56-9.69-25.49-13.31Z"/><path class="cls-127" d="M232.27,485.3c-2.45,2.64-2.75,7.69-8.15,7.16-.56-.06-1.8,1.66-1.8,2.55,0,.68,1.4,1.53,2.33,2a23.82,23.82,0,0,0,3.77,1.14L219,499.6a40,40,0,0,0-.2,6.3,4.41,4.41,0,0,0,1.85,3c.89.47,2.33.06,3.48-.17,1.85-.38,3.63-1.18,5.48-1.38,4.24-.45,8.61-.18,12.72-1.13,2.67-.61,4.07-.44,5,2.06-4.55,1.29-9,3.11-13.66,3.73-5.07.67-10.29.24-15.45.29l-15.93-3.54q1.77-2.44,3.55-4.88l6.49,4.88,3.51-2.38c-1.11-5.07-2.67-8.8-7.92-11a8.81,8.81,0,0,1-4.61-10.14c2.23,1.4,4.39,2.9,6.68,4.19,3.23,1.82,11.36,1,13.17-2,1.05-1.72.11-4.65.07-7Z"/><path class="cls-128" d="M218.28,512.28c5.16,0,10.38.38,15.45-.29,4.63-.62,9.11-2.44,13.66-3.73l1.94-.22c1.23,1.35,2.27,3.53,3.72,3.86,2.65.59,5.54.09,8.33.05-.9,1-1.81,2.07-2.88,3.31l2.92,2.25c-2.14.72-4.43,2.35-6.38,2C242.74,517.35,230.53,514.74,218.28,512.28Z"/><path class="cls-5" d="M183.4,444.25q17.15,8.37,34.31,16.71c1.78.86,3.64,1.56,5.46,2.33l-4.84,2c-1.85-.17-3.88.09-5.54-.58-6.56-2.66-13-5.61-19.49-8.46l-15.36-7.78c-.9-2-1.1-3.49-1.94-4.12-3.83-2.86-7.83-5.48-11.78-8.18,1.53.15,3.25-.1,4.55.52C173.72,439.07,178.53,441.71,183.4,444.25Z"/><path class="cls-129" d="M221.38,479.18a3.78,3.78,0,0,1,.21.8c-3.54-.26-7.16-.18-10.63-.84-5.28-1-10.47-2.95-15.69.11l-6.72-4.12-2.28-1.93c.71-1.08,1.37-2.2,2.16-3.22,3.35-4.33,6.1-5.14,9.32-1.85,2.78,2.85,5.56,2.81,8.83,1.9l6.4,3.15Z"/><path class="cls-81" d="M195.27,479.25c5.22-3.06,10.41-1.13,15.69-.11,3.47.66,7.09.58,10.63.84l1.7.36c0,2.38,1,5.31-.07,7-1.81,3-9.94,3.83-13.17,2-2.29-1.29-4.45-2.79-6.68-4.19Z"/><path class="cls-130" d="M234.56,468l-8.75-1-.57-3.73q1-5.57,2.08-11.12c1.78-2.7,2.91-6.84,6.1-4.67,1,4.58,1.14,7.9,2.38,10.78,1.32,3,3.64,5.65,5.52,8.44Z"/><path class="cls-87" d="M221.38,479.18l-8.4-6c-1.71-1.74-3.29-3.64-5.15-5.2-4.78-4-9.68-7.81-14.53-11.71,6.49,2.85,12.93,5.8,19.49,8.46,1.66.67,3.69.41,5.54.58C223.67,469,220.79,474.47,221.38,479.18Z"/><path class="cls-15" d="M218.41,148.16l6-5C225.6,148.67,221.72,148.07,218.41,148.16Z"/><path class="cls-50" d="M107.39,677.17l-11,4-1.94,1,.06,0c-.48-1.55-1.79-3.93-1.25-4.48a7.41,7.41,0,0,1,5-1.95C101.33,675.81,104.36,676.65,107.39,677.17Z"/><path class="cls-70" d="M34.27,562.26H32.39c.71-2.71,1.43-5.41,2.15-8.12l3.24-.92c-.29,1.45-.57,2.9-1.15,5.8l5.66-2.53,4.2-.41-.14,3Z"/><path class="cls-129" d="M34.54,554.14c-.72,2.71-1.44,5.41-2.15,8.12l-3.95,1C26.29,558.93,28.71,555.3,34.54,554.14Z"/><path class="cls-111" d="M42.29,556.49,36.63,559c.58-2.9.86-4.35,1.15-5.8l4.6-.13Z"/><path class="cls-131" d="M42.29,556.49l.09-3.4,2.09-1c3,2,5.39,4.09,2.77,8l-.89-.92.14-3Z"/><path class="cls-46" d="M94.44,682.1l1.94-1c7.12-1,10.26,4.72,14.9,7.9l-.55,1.26-15.15-3.23-1.09-1C94.47,684.71,94.46,683.4,94.44,682.1Z"/><path class="cls-42" d="M164.39,388.18l-.92.94c-1.82-2.71-4.24-2.75-7-1.65-9,3.62-12.18,2.2-15.46-6.9,7.43,0,14.88-.68,22.13.24C167.76,381.4,166.28,385.27,164.39,388.18Z"/><path class="cls-120" d="M193.3,456.27c4.85,3.9,9.75,7.73,14.53,11.71,1.86,1.56,3.44,3.46,5.15,5.2l-6.4-3.15-21.2-10.79-9-4.18-3.06-1.9a37.66,37.66,0,0,1-3-3c-1.62-2-3.1-4.17-4.65-6.26-1.41-1.91-2.85-3.8-4.27-5.7a3.13,3.13,0,0,1-.1-.8l2.91-1.18c3.95,2.7,7.95,5.32,11.78,8.18.84.63,1,2.12,1.94,4.12Z"/><path class="cls-132" d="M149.42,319.18l.13-2.9c-1.81-.13-5.28,2.07-4.1-2.81L135.91,317l-.7-1.34,5.3-6.54c.31-.36.63-.71,1-1.07.63.13,1.38.55,1.88.35,8.38-3.37,16.72-6.83,25.08-10.26C163.54,306.49,156.89,313.21,149.42,319.18Z"/><path class="cls-1" d="M141.46,308.07c-.32.36-.64.71-1,1.07l-7.19-1c-1.16-2.84-1.79-5.49,2.27-6.52,4.9-1.24,5.45,2.07,5.84,5.57C141.43,307.5,141.44,307.79,141.46,308.07Z"/><path class="cls-2" d="M218.28,512.28c12.25,2.46,24.46,5.07,36.76,7.24,2,.34,4.24-1.29,6.38-2l20.29-9.27-10.3,10.92,2.07,3.68c1.29,4.1,3.8,5.95,8.36,5.77,2-.07,4.25,1.63,6.06,3,.92.68,1.12,2.34,1.65,3.56-1.39.13-3.36.91-4.08.28-3.66-3.23-7-.2-10.35.32-.71.11-1.11,2.27-1.65,3.48-4.51.16-9,.17-13.53.54-1.54.13-3,1.31-4.51,1.72-2.47.65-5,1.06-8.34,1.75,2.57-8.53-3.21-7-6.66-8.09l-15-1L218.6,533c3.1-2.46,2.59-4.31-1-5.56q-10.92-3.83-21.88-7.55c-.37-.13-.88.15-1.65.3l2.9,4.22c-3.53.25-6.1,1-8.42.48-4.14-.88-8.12-2.49-12.16-3.79l0,.05c-.08-.62.06-1.55-.3-1.83-4.44-3.49-8.95-6.89-13.46-10.3-.07-.05-.29.11-.44.17L160.46,508c-1.54-2.73-3.08-5.46-4.8-8.49l4.71.65,6.76,3,.67-1.2-12-9.87,2.61.11,11,6.92,7.85,5.18c3.51,7.17,11,8.42,17.18,11.66l25.28,3.85c.09-.53.18-1.07.28-1.6l-15.52-7.35-2.12-1.78,0-.37Z"/><path class="cls-15" d="M218.6,533l6.82,1.09c-1.6,5.48,3.27,5.32,6.07,7l-.13.11h-8.63l3,2.33-3.35.65-13.87,1.92-2.11.11c-5.46-1.74-12.55-.55-13.2,2.56l2.54,1.9-2.34,2.5-10.17,1.38,0,.88,6.12,1.77v1.94c-16.19,4.62-28.44-5.73-42-11.06,4.25-1.77,1.63-4.87.95-8.39,1.66.73,2.84.9,3.43,1.57,4.16,4.79,12.07,3.19,15.53,9.19.28.5,1.54.61,2.34.62,4.84,0,9.68,0,15.37,0l-7.51-5c-1.13-5.41-3.78-9.68-8.7-12.56-6.24-3.64-12.34-7.54-18.49-11.33,2.6.06,5.39-.47,7.78.27,7.61,2.37,15.09,5.21,23.35,8.12.13.47.63,2.21,1.38,4.81,4.29-4.87,6.29-3.07,8.68.88,3.05,5,10.71,7.21,13.22,3.79,3.59-4.91,6.24-3.17,9.77-.49,2.51,1.9,3,1.57,5.17-1.19L211.22,534,212,533Z"/><path class="cls-108" d="M244.41,559.09v4l-12-3.83-.39.94,14,5.44-2.65,5.55c-8.25,3.36-15,.49-21.23-5,.59-.95,1.19-1.89,1.83-2.91l-4.65-3.21.37-.88,7.77,1.79.49-.91-7.16-4,.28-.69,8.88,2.33c-.41-2.17-.7-3.66-1-5.17C236.07,550.3,238.73,558.28,244.41,559.09Z"/><path class="cls-18" d="M189.41,557.2l-6.12-1.77,0-.88,10.17-1.38c5.74.31,9.51-3.07,13-7l2.11-.11,8.83.27,4.48,5.12-.35,1.5H205.81l6.46,2.79C204.07,559,196.9,560.56,189.41,557.2Z"/><path class="cls-128" d="M199.5,572.25a2.92,2.92,0,0,1,.78,0c1.77,1.09,3.46,2.93,5.33,3.13,6.16.66,11.45,2.9,17.18,7.77-3.31.4-5.61.7-7.91,1-1.61.19-3.41,0-4.81.59-2.86,1.29-3.71,1.42-5-2.29-.92-2.59-5.62-3.83-8.84-5.81Z"/><path class="cls-133" d="M269.33,547.14l24.08-10c.28,1.28.56,2.56.85,3.84-1.12.7-2.62,1.14-3.28,2.13-5.22,7.85-13.28,4.59-20.3,5.3C270.28,548.46,269.78,547.59,269.33,547.14Z"/><path class="cls-106" d="M294.26,541c-.29-1.28-.57-2.56-.85-3.84l.9-1c1.45-6.35,1.49-6.32,7.54-4.52.92.27,2.2-.35,3.21-.78,3.45-1.48,4.61-.09,4.32,3.29l-13,6.87Z"/><path class="cls-50" d="M231.49,541.09c-2.8-1.64-7.67-1.48-6.07-7l15,1c.49,3.14-.32,5.13-4,5.1A27.3,27.3,0,0,0,231.49,541.09Z"/><path class="cls-134" d="M222.4,544.18l3.35-.65-3-2.33h8.63c2.94,1.07,5.8,2.56,8.84,3.09s6.22.12,9.35.12l0,1.33c-7.28,1-14.55,2.22-21.87,2.9-1.7.16-3.56-1.47-5.34-2.28h11.17l0-.67Z"/><path class="cls-49" d="M206.43,571.14l-11.26-4.89c.83-.38,1.89-1.3,2.45-1,6.64,2.89,13.21,6,19.79,9l0,1Z"/><path class="cls-90" d="M222.4,544.18l11,1.51,0,.67H217.36l-8.83-.27Z"/><path class="cls-135" d="M217.39,575.22l0-1c4.82-1.5,7.39,1,8.68,6Z"/><path class="cls-50" d="M218.6,533H212l-.74.93,8.45,4.45c-2.17,2.76-2.66,3.09-5.17,1.19-3.53-2.68-6.18-4.42-9.77.49-2.51,3.42-10.17,1.25-13.22-3.79-2.39-3.95-4.39-5.75-8.68-.88-.75-2.6-1.25-4.34-1.38-4.81-8.26-2.91-15.74-5.75-23.35-8.12-2.39-.74-5.18-.21-7.78-.27h-1.9c-1.89-4.78-5.71-.42-8.45-1.82l3.07-3.22c-5.15-2.26-8-8.27-14.64-6.06l-5.89-.05c-.09-2.31-.17-4.63-.26-6.94,3.06-.14,6.14-.12,9.18-.47a68,68,0,0,0,7-1.51c1.47,1,2.89,2.17,4.43,3.1,6,3.6,12,7,19.38,4,.15-.06.37-.22.44-.17,4.51,3.41,9,6.81,13.46,10.3.36.28.22,1.21.3,1.83l-8.57-2.88-.66,1.31c1.81,1.27,3.49,2.93,5.49,3.62.89.31,2.45-1.34,3.71-2.1,4,1.3,8,2.91,12.16,3.79,2.32.49,4.89-.23,8.42-.48l-2.9-4.22c.77-.15,1.28-.43,1.65-.3q11,3.74,21.88,7.55C221.19,528.73,221.7,530.58,218.6,533Z"/><path class="cls-58" d="M169.42,499.15l-11-6.92c.57-1.15,1.15-2.29,1.06-2.12-3.23-3.46-6.05-6.12-8.32-9.19-.43-.59.95-3.28,2.12-4.08s3.13-.43,5.49-.63l-2.33-3.8c3.23-3.72,6.64-.7,9.93-.22,1.81,2.3,3.8,4.48,5.4,6.92,2.65,4,5.58,7.51,10.8,8,.81,2.92,1.62,5.83,2.84,10.18-3.58-2.61-5.92-4.34-8.29-6s-4.7-3.3-7-4.94l-.66.86,3.92,4.11-3.1,1.38,2.47,2.1Z"/><path class="cls-36" d="M122.51,511.08l5.89.05c6.83,4.69-1.42,8.75.68,14l-8.72-2.85-15.88-12c-.63-.7-1.93-1.87-1.81-2,2.23-3.09-.93-3-2.26-4,.55-2.53,1-5.08,1.68-7.59a34,34,0,0,1,1.49-3.88,22.27,22.27,0,0,1,4.17,2.09,17.59,17.59,0,0,1,2.7,3.37V509a36.67,36.67,0,0,0,2.93,3.17,8,8,0,0,0,2.49,1C117,509,120.51,512.47,122.51,511.08Z"/><path class="cls-85" d="M162.23,509.23c-7.35,3-13.4-.37-19.38-4-1.54-.93-3-2.06-4.43-3.1-2.37-1.79-4.87-3.45-7.07-5.42a33.82,33.82,0,0,1-3.67-4.6c2,.44,4.35.39,6,1.42,5.21,3.18,10,7,15.3,10.11,2.44,1.43,5.55,1.74,8.36,2.57l3.09,1.78Z"/><path class="cls-136" d="M122.51,511.08c-2,1.39-5.47-2.08-6.64,2a8,8,0,0,1-2.49-1,36.67,36.67,0,0,1-2.93-3.17V498.19l11.8,5.95C122.34,506.45,122.42,508.77,122.51,511.08Z"/><path class="cls-50" d="M160.46,508l-3.09-1.78L144,495.86l.92-1.46,11.56,3.67,3.88,2.11-4.71-.65C157.38,502.56,158.92,505.29,160.46,508Z"/><path class="cls-124" d="M160.37,500.18l-3.88-2.11-4.72-7.22,4,1.27,12,9.87-.67,1.2Z"/><path class="cls-129" d="M46.35,559.12l.89.92c-1.15,1.13-2.28,2.27-3.45,3.37-3.87,3.65-5.76,3.41-9.51-1.15Z"/><path class="cls-30" d="M120.36,522.23l8.72,2.85c-2.1-5.2,6.15-9.26-.68-14,6.62-2.21,9.49,3.8,14.64,6.06L140,520.41c2.74,1.4,6.56-3,8.45,1.82l-4.77.62c.73,4.93,6.72,9.59,10.13,9.09,1.35,1.84,2.1,3.79,3.51,4.64,5.24,3.13,10.67,6,16.11,8.77,1.19.61,2.74.53,4.11.77l7.51,5c-5.69,0-10.53,0-15.37,0-.8,0-2.06-.12-2.34-.62-3.46-6-11.37-4.4-15.53-9.19-.59-.67-1.77-.84-3.43-1.57.68,3.52,3.3,6.62-.95,8.39a26.42,26.42,0,0,0,4.12,3.56c6.65,3.78,13.39,7.38,20.11,11l-.11,1.47-11.05,3.14c-1.35.36-3.19,1.46-4,1-8.56-5.58-17-11.41-25.83-17.48l8.48-6c-2.17-2-4.94-1.74-7.76.52l-8.93-4.56.6-1.58,8,2.23c.15-.27.29-.55.44-.83l-16-11.39-5.76-9.65c3,1.77,5.24,3.14,7.52,4.37a18.83,18.83,0,0,0,3,1Z"/><path class="cls-137" d="M121.47,293.88l-8.24,11.19-5.67,2.49-1-1.26Z"/><path class="cls-92" d="M175.43,301.16h7.09c-.35,3.62-4.26,2.7-6.29,4.08l-8,3.76Z"/><path class="cls-30" d="M123.1,317.12c5.72-3.63,6.83,1.82,9.77,5.12l-6.34,2.35C125.29,321.9,124.27,319.67,123.1,317.12Z"/><path class="cls-34" d="M139.27,225.08c2.16-.44,3.55-.13,2,2.4a36.08,36.08,0,0,1-2.9,3.61l6.9,4.08-8.88,12.89.59.87,8.95-6.53c.66,2.6,1.05,4.15,1.44,5.7q-3.52,4.47-7,8.93c-.17-5.4-.17-5.4-7.28-1.86-2.31-3.42-4.58-6.8-6.86-10.17Z"/><path class="cls-138" d="M137.22,262c1.39.45,3,.59,4.13,1.41,2.24,1.61,3.08,3.78,1,6.24-1.57,1.88-3.17,3.73-4.76,5.59-3.53-1.4-3.07-4.21-2.62-7.1.1-.63-.41-1.36-.64-2Z"/><path class="cls-139" d="M134.36,266.14c.23.68.74,1.41.64,2-.45,2.89-.91,5.7,2.62,7.1l-4.16,4.93-5.17-6.63Z"/><path class="cls-51" d="M309.38,534.11c.29-3.38-.87-4.77-4.32-3.29-1,.43-2.29,1-3.21.78-6.05-1.8-6.09-1.83-7.54,4.52-2.32-3.66-1.19-5.92,2.63-7.74s7.55-4.29,12-6.87c.66,2.84,1,4.31,1.43,6.21l10.06-5.66C320.74,526.88,313.87,534.39,309.38,534.11Z"/><path class="cls-85" d="M324.41,531.15l7.91-2.5-.63,4.59-.84-1.11c-2.28,1.49-4.43,3.28-6.9,4.36-1.24.54-3.05-.22-4.61-.39Z"/><path class="cls-118" d="M173.29,491.25l-3.92-4.11.66-.86c2.34,1.64,4.71,3.27,7,4.94s4.71,3.43,8.29,6c-1.22-4.35-2-7.26-2.84-10.18,5.84-.05,2.64-3.05,1.46-5-4.26-6.89-8.71-13.66-13-20.51a8.69,8.69,0,0,1-.66-2.39l6.14-4.16,9,4.18c-1.09,1.81-1.9,3.92-3.35,5.37-2.47,2.46-2,4.27.52,6.08,1.21.87,2.47,1.68,3.72,2.51l2.28,1.93c.07,1.46.69,3.2.11,4.32-2.88,5.54,1.59,5.43,4.69,7.09s5.42,4.37,8.1,6.62c-1.09-.4-2.18-1.16-3.26-1.14-2.84.06-7.31-.49-8.14.94-1.4,2.4-.7,6.17-.44,9.33.1,1.25,1.39,2.41,2.77,4.62l-7-1.71c-1.41-1.57-2.86-3.11-4.23-4.71C178.5,497.43,175.9,494.33,173.29,491.25Z"/><path class="cls-11" d="M176.42,455.06l-6.14,4.16c-2.79-2.18-3.19-4.93-1.88-8.06l5,2Z"/><path class="cls-98" d="M201.45,493.16c-2.68-2.25-5.08-5-8.1-6.62s-7.57-1.55-4.69-7.09c.58-1.12,0-2.86-.11-4.32l6.72,4.12,8.1,5.94A8.81,8.81,0,0,0,208,495.33c5.25,2.23,6.81,6,7.92,11l-3.51,2.38-6.49-4.88q-1.78,2.43-3.55,4.88l0,.37c-1.43-1.1-2.94-2.09-4.25-3.31-2-1.84-3.79-3.84-5.67-5.77l1.13-1.24h11Z"/><path class="cls-8" d="M186.27,473.2c-1.25-.83-2.51-1.64-3.72-2.51-2.56-1.81-3-3.62-.52-6.08,1.45-1.45,2.26-3.56,3.35-5.37L206.58,470c-3.27.91-6.05,1-8.83-1.9-3.22-3.29-6-2.48-9.32,1.85C187.64,471,187,472.12,186.27,473.2Z"/><path class="cls-140" d="M201.45,493.16l3.15,5.63h-11L192.45,500c1.88,1.93,3.7,3.93,5.67,5.77,1.31,1.22,2.82,2.21,4.25,3.31l2.12,1.78c-1.94,2.31-3.75,4.65-7,1.46-.63-.61-2.33-.13-3.55-.16l.51,3.8c-6.16-3.24-13.67-4.49-17.18-11.66L188,508.88l-2.62-3.68,7,1.71c-1.38-2.21-2.67-3.37-2.77-4.62-.26-3.16-1-6.93.44-9.33.83-1.43,5.3-.88,8.14-.94C199.27,492,200.36,492.76,201.45,493.16Z"/><path class="cls-58" d="M194.45,516l-.51-3.8c1.22,0,2.92-.45,3.55.16,3.25,3.19,5.06.85,7-1.46L220,518.24c-.1.53-.19,1.07-.28,1.6Z"/><path class="cls-127" d="M185.36,505.2l2.62,3.68-10.71-4.55-7.85-5.18,3.24-4.42-2.47-2.1,3.1-1.38c2.61,3.08,5.21,6.18,7.84,9.24C182.5,502.09,184,503.63,185.36,505.2Z"/><path class="cls-141" d="M177.51,546.12c-1.37-.24-2.92-.16-4.11-.77-5.44-2.79-10.87-5.64-16.11-8.77-1.41-.85-2.16-2.8-3.51-4.64-3.41.5-9.4-4.16-10.13-9.09l4.77-.62h1.9c6.15,3.79,12.25,7.69,18.49,11.33C173.73,536.44,176.38,540.71,177.51,546.12Z"/><path class="cls-50" d="M206.42,546.21c-3.49,3.89-7.26,7.27-13,7l2.34-2.5-2.54-1.9C193.87,545.66,201,544.47,206.42,546.21Z"/><path class="cls-2" d="M176.4,521.14c-1.26.76-2.82,2.41-3.71,2.1-2-.69-3.68-2.35-5.49-3.62l.66-1.31,8.57,2.88Z"/></g></g></svg>